<svg width="1208" height="440" viewBox="0 0 1208 440" fill="none" xmlns="http://www.w3.org/2000/svg">
<path d="M0 53C0 23.7289 23.7289 0 53 0H1155C1184.27 0 1208 23.7289 1208 53V387C1208 416.271 1184.27 440 1155 440H53C23.7289 440 0 416.271 0 387V53Z" fill="#D9D9D9"/>
<path d="M644 100C644 70.7289 667.729 47 697 47H1112C1141.27 47 1165 70.7289 1165 100V345C1165 374.271 1141.27 398 1112 398H697C667.729 398 644 374.271 644 345V100Z" fill="white"/>
<path d="M63.92 59.752L73.616 78.792L83.056 59.752H86.128V81H83.92V62.92L75.056 81H72.24L63.056 62.92V81H60.848V59.752H63.92ZM106.249 66.536H108.361V81H106.249V66.536ZM93.7688 71.624H98.4728C100.179 71.624 101.481 72.0827 102.377 73C103.273 73.896 103.721 75.0053 103.721 76.328C103.721 77.6933 103.273 78.8133 102.377 79.688C101.502 80.5627 100.201 81 98.4728 81H91.6568V66.536H93.7688V71.624ZM93.7688 79.08H98.3767C99.4008 79.08 100.19 78.8453 100.745 78.376C101.321 77.9067 101.609 77.224 101.609 76.328C101.609 75.432 101.321 74.7493 100.745 74.28C100.19 73.7893 99.4008 73.544 98.3767 73.544H93.7688V79.08ZM121.054 71.816H129.342V73.832H121.054V71.816ZM142.032 66.536H144.144V73.224L151.632 66.536H154.352L146.224 73.768L154.384 81H151.632L144.144 74.696V81H142.032V66.536ZM168.745 68.296C170.153 69.7467 170.857 71.5707 170.857 73.768C170.857 75.9653 170.153 77.7893 168.745 79.24C167.337 80.6907 165.566 81.416 163.433 81.416C161.299 81.416 159.518 80.6907 158.089 79.24C156.681 77.7893 155.977 75.9653 155.977 73.768C155.977 71.5707 156.681 69.7467 158.089 68.296C159.518 66.8453 161.299 66.12 163.433 66.12C165.566 66.12 167.337 66.8453 168.745 68.296ZM167.273 77.864C168.254 76.7547 168.745 75.3893 168.745 73.768C168.745 72.1467 168.254 70.792 167.273 69.704C166.291 68.5947 165.011 68.04 163.433 68.04C161.854 68.04 160.563 68.5947 159.561 69.704C158.579 70.792 158.089 72.1467 158.089 73.768C158.089 75.3893 158.579 76.7547 159.561 77.864C160.563 78.952 161.854 79.496 163.433 79.496C165.011 79.496 166.291 78.952 167.273 77.864ZM190.259 70.408L185.011 81H182.611L177.363 70.408V81H175.251V66.536H177.747L183.827 78.792L189.907 66.536H192.371V81H190.259V70.408ZM203.351 66.12C205.356 66.12 206.977 66.6213 208.215 67.624C209.452 68.6053 210.071 69.9707 210.071 71.72V81H207.959V79.208C206.7 80.68 204.961 81.416 202.743 81.416C200.972 81.416 199.532 81.0107 198.423 80.2C197.313 79.3893 196.759 78.2267 196.759 76.712C196.759 75.1333 197.324 73.96 198.455 73.192C199.607 72.4027 201.079 72.008 202.871 72.008H207.959V71.72C207.959 70.4613 207.532 69.5333 206.679 68.936C205.847 68.3387 204.716 68.04 203.286 68.04C202.177 68.04 201.228 68.264 200.439 68.712C199.649 69.16 199.095 69.7467 198.775 70.472H196.503C196.929 69.1067 197.751 68.04 198.967 67.272C200.183 66.504 201.644 66.12 203.351 66.12ZM207.959 75.048V73.928H202.807C200.183 73.928 198.871 74.856 198.871 76.712C198.871 77.6293 199.223 78.3227 199.927 78.792C200.631 79.2613 201.58 79.496 202.775 79.496C204.375 79.496 205.633 79.0587 206.551 78.184C207.489 77.3093 207.959 76.264 207.959 75.048ZM226.454 66.536H228.566V81H226.454V74.696H217.206V81H215.094V66.536H217.206V72.776H226.454V66.536ZM248.946 85.032H246.834V81H233.842V85.032H231.73V79.08H233.298C234.642 77.9493 235.314 75.7627 235.314 72.52V66.536H246.61V79.08H248.946V85.032ZM237.426 68.456V72.488C237.426 75.4747 236.935 77.672 235.954 79.08H244.498V68.456H237.426ZM258.569 66.12C260.575 66.12 262.196 66.6213 263.433 67.624C264.671 68.6053 265.289 69.9707 265.289 71.72V81H263.177V79.208C261.919 80.68 260.18 81.416 257.961 81.416C256.191 81.416 254.751 81.0107 253.641 80.2C252.532 79.3893 251.977 78.2267 251.977 76.712C251.977 75.1333 252.543 73.96 253.673 73.192C254.825 72.4027 256.297 72.008 258.089 72.008H263.177V71.72C263.177 70.4613 262.751 69.5333 261.897 68.936C261.065 68.3387 259.935 68.04 258.505 68.04C257.396 68.04 256.447 68.264 255.657 68.712C254.868 69.16 254.313 69.7467 253.993 70.472H251.721C252.148 69.1067 252.969 68.04 254.185 67.272C255.401 66.504 256.863 66.12 258.569 66.12ZM263.177 75.048V73.928H258.025C255.401 73.928 254.089 74.856 254.089 76.712C254.089 77.6293 254.441 78.3227 255.145 78.792C255.849 79.2613 256.799 79.496 257.993 79.496C259.593 79.496 260.852 79.0587 261.769 78.184C262.708 77.3093 263.177 76.264 263.177 75.048ZM279.121 70.408H276.849C277.361 69.064 278.203 68.0187 279.377 67.272C280.55 66.504 281.926 66.12 283.505 66.12C285.617 66.12 287.387 66.856 288.817 68.328C290.267 69.7787 290.993 71.592 290.993 73.768C290.993 75.944 290.267 77.768 288.817 79.24C287.387 80.6907 285.617 81.416 283.505 81.416C281.926 81.416 280.55 81.0427 279.377 80.296C278.203 79.528 277.361 78.472 276.849 77.128H279.121C279.526 77.832 280.113 78.408 280.881 78.856C281.649 79.2827 282.523 79.496 283.505 79.496C284.934 79.496 286.118 79.0587 287.057 78.184C288.017 77.288 288.603 76.1253 288.817 74.696H281.009V72.776H288.785C288.571 71.3893 287.985 70.2587 287.025 69.384C286.065 68.488 284.891 68.04 283.505 68.04C282.523 68.04 281.649 68.264 280.881 68.712C280.113 69.1387 279.526 69.704 279.121 70.408ZM306.736 66.536H308.847V81H306.736V74.696H297.488V81H295.376V66.536H297.488V72.776H306.736V66.536ZM312.203 68.456V66.536H325.707V68.456H320.011V81H317.899V68.456H312.203ZM327.32 66.536H329.656L335.064 78.504L340.472 66.536H342.68L336.056 81.096C335.843 81.5653 335.565 82.1947 335.224 82.984C334.883 83.7733 334.627 84.328 334.456 84.648C334.307 84.968 334.083 85.3627 333.784 85.832C333.507 86.3227 333.229 86.6533 332.952 86.824C332.696 86.9947 332.355 87.1547 331.928 87.304C331.523 87.4533 331.043 87.528 330.488 87.528H329.336V85.608H329.848C330.744 85.608 331.416 85.3733 331.864 84.904C332.333 84.456 332.835 83.5813 333.368 82.28L333.912 80.968L327.32 66.536ZM355.932 73.8C357.084 74.4187 357.66 75.3893 357.66 76.712C357.66 78.0347 357.073 79.1547 355.9 80.072C354.726 80.968 353.222 81.416 351.388 81.416C349.446 81.416 347.878 80.9787 346.684 80.104C345.489 79.2293 344.732 78.184 344.412 76.968H346.716C347.1 77.8213 347.654 78.4613 348.38 78.888C349.105 79.2933 350.108 79.496 351.388 79.496C352.476 79.496 353.436 79.2613 354.268 78.792C355.121 78.3227 355.548 77.6613 355.548 76.808C355.548 76.1893 355.334 75.688 354.908 75.304C354.502 74.92 353.894 74.728 353.084 74.728H349.5V72.808H353.052C353.82 72.808 354.417 72.6267 354.844 72.264C355.27 71.9013 355.484 71.3787 355.484 70.696C355.484 69.8853 355.078 69.2453 354.268 68.776C353.478 68.2853 352.508 68.04 351.356 68.04C348.945 68.04 347.409 68.8507 346.748 70.472H344.476C344.796 69.2773 345.532 68.2533 346.684 67.4C347.857 66.5467 349.425 66.12 351.388 66.12C353.03 66.12 354.47 66.5253 355.708 67.336C356.966 68.1467 357.596 69.2667 357.596 70.696C357.596 72.104 357.041 73.1387 355.932 73.8ZM364.363 81H362.251V66.536H364.363V77.896L373.611 66.536H375.722V81H373.611V69.64L364.363 81ZM386.694 66.12C388.7 66.12 390.321 66.6213 391.558 67.624C392.796 68.6053 393.414 69.9707 393.414 71.72V81H391.302V79.208C390.044 80.68 388.305 81.416 386.086 81.416C384.316 81.416 382.876 81.0107 381.766 80.2C380.657 79.3893 380.102 78.2267 380.102 76.712C380.102 75.1333 380.668 73.96 381.798 73.192C382.95 72.4027 384.422 72.008 386.214 72.008H391.302V71.72C391.302 70.4613 390.876 69.5333 390.022 68.936C389.19 68.3387 388.06 68.04 386.63 68.04C385.521 68.04 384.572 68.264 383.782 68.712C382.993 69.16 382.438 69.7467 382.118 70.472H379.846C380.273 69.1067 381.094 68.04 382.31 67.272C383.526 66.504 384.988 66.12 386.694 66.12ZM391.302 75.048V73.928H386.15C383.526 73.928 382.214 74.856 382.214 76.712C382.214 77.6293 382.566 78.3227 383.27 78.792C383.974 79.2613 384.924 79.496 386.118 79.496C387.718 79.496 388.977 79.0587 389.894 78.184C390.833 77.3093 391.302 76.264 391.302 75.048ZM411.558 70.408H409.286C408.881 69.704 408.294 69.1387 407.526 68.712C406.758 68.264 405.883 68.04 404.902 68.04C403.345 68.04 402.054 68.5947 401.03 69.704C400.027 70.8133 399.526 72.168 399.526 73.768C399.526 75.368 400.027 76.7227 401.03 77.832C402.054 78.9413 403.345 79.496 404.902 79.496C405.883 79.496 406.758 79.2827 407.526 78.856C408.294 78.408 408.881 77.832 409.286 77.128H411.558C411.046 78.472 410.203 79.528 409.03 80.296C407.857 81.0427 406.481 81.416 404.902 81.416C402.79 81.416 401.009 80.6907 399.558 79.24C398.129 77.768 397.414 75.944 397.414 73.768C397.414 71.592 398.129 69.7787 399.558 68.328C401.009 66.856 402.79 66.12 404.902 66.12C406.481 66.12 407.857 66.504 409.03 67.272C410.203 68.0187 411.046 69.064 411.558 70.408ZM413.735 68.456V66.536H427.239V68.456H421.543V81H419.431V68.456H413.735ZM442.088 68.296C443.496 69.7467 444.2 71.5707 444.2 73.768C444.2 75.9653 443.496 77.7893 442.088 79.24C440.68 80.6907 438.91 81.416 436.776 81.416C434.643 81.416 432.862 80.6907 431.432 79.24C430.024 77.7893 429.32 75.9653 429.32 73.768C429.32 71.5707 430.024 69.7467 431.432 68.296C432.862 66.8453 434.643 66.12 436.776 66.12C438.91 66.12 440.68 66.8453 442.088 68.296ZM440.616 77.864C441.598 76.7547 442.088 75.3893 442.088 73.768C442.088 72.1467 441.598 70.792 440.616 69.704C439.635 68.5947 438.355 68.04 436.776 68.04C435.198 68.04 433.907 68.5947 432.904 69.704C431.923 70.792 431.432 72.1467 431.432 73.768C431.432 75.3893 431.923 76.7547 432.904 77.864C433.907 78.952 435.198 79.496 436.776 79.496C438.355 79.496 439.635 78.952 440.616 77.864ZM459.698 73.8C461.064 74.3973 461.746 75.5493 461.746 77.256C461.746 78.344 461.362 79.24 460.594 79.944C459.826 80.648 458.717 81 457.266 81H448.594V66.536H457.17C458.642 66.536 459.752 66.888 460.498 67.592C461.266 68.2747 461.65 69.1813 461.65 70.312C461.65 72.0187 461 73.1813 459.698 73.8ZM450.706 72.808H457.042C457.832 72.808 458.44 72.6267 458.866 72.264C459.314 71.88 459.538 71.336 459.538 70.632C459.538 69.928 459.314 69.3947 458.866 69.032C458.44 68.648 457.832 68.456 457.042 68.456H450.706V72.808ZM450.706 79.08H457.138C457.928 79.08 458.536 78.8987 458.962 78.536C459.41 78.152 459.634 77.608 459.634 76.904C459.634 76.2 459.41 75.6667 458.962 75.304C458.536 74.92 457.928 74.728 457.138 74.728H450.706V79.08ZM465.978 84.424H464.346L466.394 81H464.954V78.056H467.898V81.256L465.978 84.424ZM480.251 66.536H482.363V73.224L489.851 66.536H492.571L484.443 73.768L492.603 81H489.851L482.363 74.696V81H480.251V66.536ZM506.963 68.296C508.371 69.7467 509.075 71.5707 509.075 73.768C509.075 75.9653 508.371 77.7893 506.963 79.24C505.555 80.6907 503.785 81.416 501.651 81.416C499.518 81.416 497.737 80.6907 496.307 79.24C494.899 77.7893 494.195 75.9653 494.195 73.768C494.195 71.5707 494.899 69.7467 496.307 68.296C497.737 66.8453 499.518 66.12 501.651 66.12C503.785 66.12 505.555 66.8453 506.963 68.296ZM505.491 77.864C506.473 76.7547 506.963 75.3893 506.963 73.768C506.963 72.1467 506.473 70.792 505.491 69.704C504.51 68.5947 503.23 68.04 501.651 68.04C500.073 68.04 498.782 68.5947 497.779 69.704C496.798 70.792 496.307 72.1467 496.307 73.768C496.307 75.3893 496.798 76.7547 497.779 77.864C498.782 78.952 500.073 79.496 501.651 79.496C503.23 79.496 504.51 78.952 505.491 77.864ZM511.11 68.456V66.536H524.614V68.456H518.918V81H516.806V68.456H511.11ZM539.463 68.296C540.871 69.7467 541.575 71.5707 541.575 73.768C541.575 75.9653 540.871 77.7893 539.463 79.24C538.055 80.6907 536.285 81.416 534.151 81.416C532.018 81.416 530.237 80.6907 528.807 79.24C527.399 77.7893 526.695 75.9653 526.695 73.768C526.695 71.5707 527.399 69.7467 528.807 68.296C530.237 66.8453 532.018 66.12 534.151 66.12C536.285 66.12 538.055 66.8453 539.463 68.296ZM537.991 77.864C538.973 76.7547 539.463 75.3893 539.463 73.768C539.463 72.1467 538.973 70.792 537.991 69.704C537.01 68.5947 535.73 68.04 534.151 68.04C532.573 68.04 531.282 68.5947 530.279 69.704C529.298 70.792 528.807 72.1467 528.807 73.768C528.807 75.3893 529.298 76.7547 530.279 77.864C531.282 78.952 532.573 79.496 534.151 79.496C535.73 79.496 537.01 78.952 537.991 77.864ZM558.641 68.36C559.943 69.8533 560.593 71.656 560.593 73.768C560.593 75.88 559.943 77.6827 558.641 79.176C557.361 80.6693 555.58 81.416 553.297 81.416C552.167 81.416 551.143 81.2027 550.225 80.776C549.308 80.3493 548.593 79.816 548.081 79.176V87.528H545.969V66.536H548.081V68.36C548.593 67.72 549.308 67.1867 550.225 66.76C551.143 66.3333 552.167 66.12 553.297 66.12C555.58 66.12 557.361 66.8667 558.641 68.36ZM557.009 77.832C557.991 76.7013 558.481 75.3467 558.481 73.768C558.481 72.1893 557.991 70.8453 557.009 69.736C556.049 68.6053 554.812 68.04 553.297 68.04C551.804 68.04 550.545 68.5413 549.521 69.544C548.519 70.5253 548.017 71.9333 548.017 73.768C548.017 75.6027 548.519 77.0213 549.521 78.024C550.545 79.0053 551.804 79.496 553.297 79.496C554.812 79.496 556.049 78.9413 557.009 77.832ZM570.538 66.12C572.543 66.12 574.165 66.6213 575.402 67.624C576.639 68.6053 577.258 69.9707 577.258 71.72V81H575.146V79.208C573.887 80.68 572.149 81.416 569.93 81.416C568.159 81.416 566.719 81.0107 565.61 80.2C564.501 79.3893 563.946 78.2267 563.946 76.712C563.946 75.1333 564.511 73.96 565.642 73.192C566.794 72.4027 568.266 72.008 570.058 72.008H575.146V71.72C575.146 70.4613 574.719 69.5333 573.866 68.936C573.034 68.3387 571.903 68.04 570.474 68.04C569.365 68.04 568.415 68.264 567.626 68.712C566.837 69.16 566.282 69.7467 565.962 70.472H563.69C564.117 69.1067 564.938 68.04 566.154 67.272C567.37 66.504 568.831 66.12 570.538 66.12ZM575.146 75.048V73.928H569.994C567.37 73.928 566.058 74.856 566.058 76.712C566.058 77.6293 566.41 78.3227 567.114 78.792C567.818 79.2613 568.767 79.496 569.962 79.496C571.562 79.496 572.821 79.0587 573.738 78.184C574.677 77.3093 575.146 76.264 575.146 75.048ZM591.434 75.912H587.722L583.338 81H580.65L585.098 75.816C583.818 75.624 582.836 75.1013 582.154 74.248C581.492 73.3733 581.162 72.36 581.162 71.208C581.162 69.8427 581.599 68.7227 582.474 67.848C583.37 66.9733 584.682 66.536 586.41 66.536H593.546V81H591.434V75.912ZM591.434 68.456H586.506C585.482 68.456 584.682 68.6907 584.106 69.16C583.551 69.6293 583.274 70.312 583.274 71.208C583.274 72.104 583.551 72.7973 584.106 73.288C584.682 73.7573 585.482 73.992 586.506 73.992H591.434V68.456ZM73.36 112.36C74.6613 113.853 75.312 115.656 75.312 117.768C75.312 119.88 74.6613 121.683 73.36 123.176C72.08 124.669 70.2987 125.416 68.016 125.416C66.8853 125.416 65.8613 125.203 64.944 124.776C64.0267 124.349 63.312 123.816 62.8 123.176V131.528H60.688V110.536H62.8V112.36C63.312 111.72 64.0267 111.187 64.944 110.76C65.8613 110.333 66.8853 110.12 68.016 110.12C70.2987 110.12 72.08 110.867 73.36 112.36ZM71.728 121.832C72.7093 120.701 73.2 119.347 73.2 117.768C73.2 116.189 72.7093 114.845 71.728 113.736C70.768 112.605 69.5307 112.04 68.016 112.04C66.5227 112.04 65.264 112.541 64.24 113.544C63.2373 114.525 62.736 115.933 62.736 117.768C62.736 119.603 63.2373 121.021 64.24 122.024C65.264 123.005 66.5227 123.496 68.016 123.496C69.5307 123.496 70.768 122.941 71.728 121.832ZM85.2568 110.12C87.2621 110.12 88.8834 110.621 90.1208 111.624C91.3581 112.605 91.9768 113.971 91.9768 115.72V125H89.8648V123.208C88.6061 124.68 86.8674 125.416 84.6488 125.416C82.8781 125.416 81.4381 125.011 80.3288 124.2C79.2194 123.389 78.6648 122.227 78.6648 120.712C78.6648 119.133 79.2301 117.96 80.3608 117.192C81.5128 116.403 82.9848 116.008 84.7768 116.008H89.8648V115.72C89.8648 114.461 89.4381 113.533 88.5848 112.936C87.7528 112.339 86.6221 112.04 85.1927 112.04C84.0834 112.04 83.1341 112.264 82.3448 112.712C81.5554 113.16 81.0008 113.747 80.6808 114.472H78.4088C78.8354 113.107 79.6568 112.04 80.8728 111.272C82.0888 110.504 83.5501 110.12 85.2568 110.12ZM89.8648 119.048V117.928H84.7128C82.0888 117.928 80.7768 118.856 80.7768 120.712C80.7768 121.629 81.1288 122.323 81.8328 122.792C82.5368 123.261 83.4861 123.496 84.6808 123.496C86.2808 123.496 87.5394 123.059 88.4568 122.184C89.3954 121.309 89.8648 120.264 89.8648 119.048ZM107.401 117.8C108.553 118.419 109.129 119.389 109.129 120.712C109.129 122.035 108.542 123.155 107.369 124.072C106.195 124.968 104.691 125.416 102.857 125.416C100.915 125.416 99.3472 124.979 98.1525 124.104C96.9578 123.229 96.2005 122.184 95.8805 120.968H98.1845C98.5685 121.821 99.1232 122.461 99.8485 122.888C100.574 123.293 101.577 123.496 102.857 123.496C103.945 123.496 104.905 123.261 105.737 122.792C106.59 122.323 107.017 121.661 107.017 120.808C107.017 120.189 106.803 119.688 106.377 119.304C105.971 118.92 105.363 118.728 104.553 118.728H100.969V116.808H104.521C105.289 116.808 105.886 116.627 106.313 116.264C106.739 115.901 106.953 115.379 106.953 114.696C106.953 113.885 106.547 113.245 105.737 112.776C104.947 112.285 103.977 112.04 102.825 112.04C100.414 112.04 98.8778 112.851 98.2165 114.472H95.9445C96.2645 113.277 97.0005 112.253 98.1525 111.4C99.3258 110.547 100.894 110.12 102.857 110.12C104.499 110.12 105.939 110.525 107.177 111.336C108.435 112.147 109.065 113.267 109.065 114.696C109.065 116.104 108.51 117.139 107.401 117.8ZM126.391 112.36C127.693 113.853 128.343 115.656 128.343 117.768C128.343 119.88 127.693 121.683 126.391 123.176C125.111 124.669 123.33 125.416 121.047 125.416C119.917 125.416 118.893 125.203 117.975 124.776C117.058 124.349 116.343 123.816 115.831 123.176V131.528H113.719V110.536H115.831V112.36C116.343 111.72 117.058 111.187 117.975 110.76C118.893 110.333 119.917 110.12 121.047 110.12C123.33 110.12 125.111 110.867 126.391 112.36ZM124.759 121.832C125.741 120.701 126.231 119.347 126.231 117.768C126.231 116.189 125.741 114.845 124.759 113.736C123.799 112.605 122.562 112.04 121.047 112.04C119.554 112.04 118.295 112.541 117.271 113.544C116.269 114.525 115.767 115.933 115.767 117.768C115.767 119.603 116.269 121.021 117.271 122.024C118.295 123.005 119.554 123.496 121.047 123.496C122.562 123.496 123.799 122.941 124.759 121.832ZM138.288 110.12C140.293 110.12 141.915 110.621 143.152 111.624C144.389 112.605 145.008 113.971 145.008 115.72V125H142.896V123.208C141.637 124.68 139.899 125.416 137.68 125.416C135.909 125.416 134.469 125.011 133.36 124.2C132.251 123.389 131.696 122.227 131.696 120.712C131.696 119.133 132.261 117.96 133.392 117.192C134.544 116.403 136.016 116.008 137.808 116.008H142.896V115.72C142.896 114.461 142.469 113.533 141.616 112.936C140.784 112.339 139.653 112.04 138.224 112.04C137.115 112.04 136.165 112.264 135.376 112.712C134.587 113.16 134.032 113.747 133.712 114.472H131.44C131.867 113.107 132.688 112.04 133.904 111.272C135.12 110.504 136.581 110.12 138.288 110.12ZM142.896 119.048V117.928H137.744C135.12 117.928 133.808 118.856 133.808 120.712C133.808 121.629 134.16 122.323 134.864 122.792C135.568 123.261 136.517 123.496 137.712 123.496C139.312 123.496 140.571 123.059 141.488 122.184C142.427 121.309 142.896 120.264 142.896 119.048ZM157.008 110.504C159.077 110.504 160.816 111.251 162.224 112.744C163.632 114.216 164.336 115.965 164.336 117.992C164.336 120.061 163.61 121.821 162.16 123.272C160.73 124.701 158.938 125.416 156.784 125.416C154.33 125.416 152.474 124.595 151.216 122.952C149.978 121.288 149.36 119.187 149.36 116.648C149.36 113.213 149.786 110.632 150.64 108.904C151.514 107.176 153.21 106.152 155.728 105.832L159.088 105.416C159.92 105.288 160.538 105.107 160.944 104.872C161.37 104.616 161.637 104.189 161.744 103.592H163.856C163.77 104.019 163.664 104.392 163.536 104.712C163.429 105.011 163.237 105.352 162.96 105.736C162.704 106.12 162.309 106.44 161.776 106.696C161.264 106.952 160.624 107.133 159.856 107.24L155.792 107.784C155.088 107.891 154.469 108.093 153.936 108.392C153.424 108.669 153.029 108.979 152.752 109.32C152.474 109.64 152.24 110.056 152.048 110.568C151.877 111.059 151.76 111.464 151.696 111.784C151.653 112.104 151.61 112.509 151.568 113C152.89 111.336 154.704 110.504 157.008 110.504ZM162.224 117.96C162.224 116.424 161.722 115.123 160.72 114.056C159.738 112.968 158.469 112.424 156.912 112.424C155.333 112.424 154.032 112.968 153.008 114.056C151.984 115.144 151.472 116.445 151.472 117.96C151.472 119.496 151.962 120.808 152.944 121.896C153.946 122.963 155.226 123.496 156.784 123.496C158.362 123.496 159.664 122.952 160.688 121.864C161.712 120.776 162.224 119.475 162.224 117.96ZM174.288 110.12C176.293 110.12 177.915 110.621 179.152 111.624C180.389 112.605 181.008 113.971 181.008 115.72V125H178.896V123.208C177.637 124.68 175.899 125.416 173.68 125.416C171.909 125.416 170.469 125.011 169.36 124.2C168.251 123.389 167.696 122.227 167.696 120.712C167.696 119.133 168.261 117.96 169.392 117.192C170.544 116.403 172.016 116.008 173.808 116.008H178.896V115.72C178.896 114.461 178.469 113.533 177.616 112.936C176.784 112.339 175.653 112.04 174.224 112.04C173.115 112.04 172.165 112.264 171.376 112.712C170.587 113.16 170.032 113.747 169.712 114.472H167.44C167.867 113.107 168.688 112.04 169.904 111.272C171.12 110.504 172.581 110.12 174.288 110.12ZM178.896 119.048V117.928H173.744C171.12 117.928 169.808 118.856 169.808 120.712C169.808 121.629 170.16 122.323 170.864 122.792C171.568 123.261 172.517 123.496 173.712 123.496C175.312 123.496 176.571 123.059 177.488 122.184C178.427 121.309 178.896 120.264 178.896 119.048ZM183.828 112.456V110.536H197.332V112.456H191.636V125H189.524V112.456H183.828ZM215.28 110.536H217.392V125H215.28V110.536ZM202.8 115.624H207.504C209.211 115.624 210.512 116.083 211.408 117C212.304 117.896 212.752 119.005 212.752 120.328C212.752 121.693 212.304 122.813 211.408 123.688C210.533 124.563 209.232 125 207.504 125H200.688V110.536H202.8V115.624ZM202.8 123.08H207.408C208.432 123.08 209.221 122.845 209.776 122.376C210.352 121.907 210.64 121.224 210.64 120.328C210.64 119.432 210.352 118.749 209.776 118.28C209.221 117.789 208.432 117.544 207.408 117.544H202.8V123.08ZM233.886 117.8C235.251 118.397 235.934 119.549 235.934 121.256C235.934 122.344 235.55 123.24 234.782 123.944C234.014 124.648 232.904 125 231.454 125H222.782V110.536H231.358C232.83 110.536 233.939 110.888 234.686 111.592C235.454 112.275 235.838 113.181 235.838 114.312C235.838 116.019 235.187 117.181 233.886 117.8ZM224.894 116.808H231.23C232.019 116.808 232.627 116.627 233.054 116.264C233.502 115.88 233.726 115.336 233.726 114.632C233.726 113.928 233.502 113.395 233.054 113.032C232.627 112.648 232.019 112.456 231.23 112.456H224.894V116.808ZM224.894 123.08H231.326C232.115 123.08 232.723 122.899 233.15 122.536C233.598 122.152 233.822 121.608 233.822 120.904C233.822 120.2 233.598 119.667 233.15 119.304C232.723 118.92 232.115 118.728 231.326 118.728H224.894V123.08ZM245.913 110.12C247.918 110.12 249.54 110.621 250.777 111.624C252.014 112.605 252.633 113.971 252.633 115.72V125H250.521V123.208C249.262 124.68 247.524 125.416 245.305 125.416C243.534 125.416 242.094 125.011 240.985 124.2C239.876 123.389 239.321 122.227 239.321 120.712C239.321 119.133 239.886 117.96 241.017 117.192C242.169 116.403 243.641 116.008 245.433 116.008H250.521V115.72C250.521 114.461 250.094 113.533 249.241 112.936C248.409 112.339 247.278 112.04 245.849 112.04C244.74 112.04 243.79 112.264 243.001 112.712C242.212 113.16 241.657 113.747 241.337 114.472H239.065C239.492 113.107 240.313 112.04 241.529 111.272C242.745 110.504 244.206 110.12 245.913 110.12ZM250.521 119.048V117.928H245.369C242.745 117.928 241.433 118.856 241.433 120.712C241.433 121.629 241.785 122.323 242.489 122.792C243.193 123.261 244.142 123.496 245.337 123.496C246.937 123.496 248.196 123.059 249.113 122.184C250.052 121.309 250.521 120.264 250.521 119.048ZM270.841 117.608C270.841 118.077 270.819 118.387 270.777 118.536H258.809C258.937 119.944 259.491 121.128 260.473 122.088C261.475 123.027 262.67 123.496 264.057 123.496C266.083 123.496 267.555 122.707 268.473 121.128H270.649C270.137 122.493 269.305 123.549 268.153 124.296C267.022 125.043 265.657 125.416 264.057 125.416C261.923 125.416 260.153 124.701 258.745 123.272C257.337 121.821 256.633 119.976 256.633 117.736C256.633 115.539 257.305 113.725 258.649 112.296C260.014 110.845 261.774 110.12 263.929 110.12C265.913 110.12 267.555 110.835 268.857 112.264C270.179 113.693 270.841 115.475 270.841 117.608ZM258.809 116.616H268.665C268.473 115.272 267.961 114.173 267.129 113.32C266.297 112.467 265.23 112.04 263.929 112.04C262.478 112.04 261.305 112.456 260.409 113.288C259.513 114.12 258.979 115.229 258.809 116.616ZM272.828 112.456V110.536H286.332V112.456H280.636V125H278.524V112.456H272.828ZM297.063 110.536H310.247V125H308.135V112.456H299.175V125H297.063V110.536ZM328.298 112.36C329.599 113.853 330.25 115.656 330.25 117.768C330.25 119.88 329.599 121.683 328.298 123.176C327.018 124.669 325.236 125.416 322.954 125.416C321.823 125.416 320.799 125.203 319.882 124.776C318.964 124.349 318.25 123.816 317.738 123.176V131.528H315.626V110.536H317.738V112.36C318.25 111.72 318.964 111.187 319.882 110.76C320.799 110.333 321.823 110.12 322.954 110.12C325.236 110.12 327.018 110.867 328.298 112.36ZM326.666 121.832C327.647 120.701 328.138 119.347 328.138 117.768C328.138 116.189 327.647 114.845 326.666 113.736C325.706 112.605 324.468 112.04 322.954 112.04C321.46 112.04 320.202 112.541 319.178 113.544C318.175 114.525 317.674 115.933 317.674 117.768C317.674 119.603 318.175 121.021 319.178 122.024C320.202 123.005 321.46 123.496 322.954 123.496C324.468 123.496 325.706 122.941 326.666 121.832ZM347.778 117.608C347.778 118.077 347.757 118.387 347.714 118.536H335.746C335.874 119.944 336.429 121.128 337.41 122.088C338.413 123.027 339.608 123.496 340.994 123.496C343.021 123.496 344.493 122.707 345.41 121.128H347.586C347.074 122.493 346.242 123.549 345.09 124.296C343.96 125.043 342.594 125.416 340.994 125.416C338.861 125.416 337.09 124.701 335.682 123.272C334.274 121.821 333.57 119.976 333.57 117.736C333.57 115.539 334.242 113.725 335.586 112.296C336.952 110.845 338.712 110.12 340.866 110.12C342.85 110.12 344.493 110.835 345.794 112.264C347.117 113.693 347.778 115.475 347.778 117.608ZM335.746 116.616H345.602C345.41 115.272 344.898 114.173 344.066 113.32C343.234 112.467 342.168 112.04 340.866 112.04C339.416 112.04 338.242 112.456 337.346 113.288C336.45 114.12 335.917 115.229 335.746 116.616ZM367.134 129.032H365.022V125H352.03V129.032H349.918V123.08H351.486C352.83 121.949 353.502 119.763 353.502 116.52V110.536H364.798V123.08H367.134V129.032ZM355.614 112.456V116.488C355.614 119.475 355.123 121.672 354.141 123.08H362.686V112.456H355.614ZM384.277 114.408H382.005C381.599 113.704 381.013 113.139 380.245 112.712C379.477 112.264 378.602 112.04 377.621 112.04C376.063 112.04 374.773 112.595 373.749 113.704C372.746 114.813 372.245 116.168 372.245 117.768C372.245 119.368 372.746 120.723 373.749 121.832C374.773 122.941 376.063 123.496 377.621 123.496C378.602 123.496 379.477 123.283 380.245 122.856C381.013 122.408 381.599 121.832 382.005 121.128H384.277C383.765 122.472 382.922 123.528 381.749 124.296C380.575 125.043 379.199 125.416 377.621 125.416C375.509 125.416 373.727 124.691 372.277 123.24C370.847 121.768 370.133 119.944 370.133 117.768C370.133 115.592 370.847 113.779 372.277 112.328C373.727 110.856 375.509 110.12 377.621 110.12C379.199 110.12 380.575 110.504 381.749 111.272C382.922 112.019 383.765 113.064 384.277 114.408ZM388.469 110.536H390.581V117.224L398.069 110.536H400.789L392.661 117.768L400.821 125H398.069L390.581 118.696V125H388.469V110.536ZM409.382 110.12C411.387 110.12 413.008 110.621 414.246 111.624C415.483 112.605 416.102 113.971 416.102 115.72V125H413.99V123.208C412.731 124.68 410.992 125.416 408.774 125.416C407.003 125.416 405.563 125.011 404.454 124.2C403.344 123.389 402.79 122.227 402.79 120.712C402.79 119.133 403.355 117.96 404.486 117.192C405.638 116.403 407.11 116.008 408.902 116.008H413.99V115.72C413.99 114.461 413.563 113.533 412.71 112.936C411.878 112.339 410.747 112.04 409.318 112.04C408.208 112.04 407.259 112.264 406.47 112.712C405.68 113.16 405.126 113.747 404.806 114.472H402.534C402.96 113.107 403.782 112.04 404.998 111.272C406.214 110.504 407.675 110.12 409.382 110.12ZM413.99 119.048V117.928H408.838C406.214 117.928 404.902 118.856 404.902 120.712C404.902 121.629 405.254 122.323 405.958 122.792C406.662 123.261 407.611 123.496 408.806 123.496C410.406 123.496 411.664 123.059 412.582 122.184C413.52 121.309 413.99 120.264 413.99 119.048ZM431.526 117.8C432.678 118.419 433.254 119.389 433.254 120.712C433.254 122.035 432.667 123.155 431.494 124.072C430.32 124.968 428.816 125.416 426.982 125.416C425.04 125.416 423.472 124.979 422.278 124.104C421.083 123.229 420.326 122.184 420.006 120.968H422.31C422.694 121.821 423.248 122.461 423.974 122.888C424.699 123.293 425.702 123.496 426.982 123.496C428.07 123.496 429.03 123.261 429.862 122.792C430.715 122.323 431.142 121.661 431.142 120.808C431.142 120.189 430.928 119.688 430.502 119.304C430.096 118.92 429.488 118.728 428.678 118.728H425.094V116.808H428.646C429.414 116.808 430.011 116.627 430.438 116.264C430.864 115.901 431.078 115.379 431.078 114.696C431.078 113.885 430.672 113.245 429.862 112.776C429.072 112.285 428.102 112.04 426.95 112.04C424.539 112.04 423.003 112.851 422.342 114.472H420.07C420.39 113.277 421.126 112.253 422.278 111.4C423.451 110.547 425.019 110.12 426.982 110.12C428.624 110.12 430.064 110.525 431.302 111.336C432.56 112.147 433.19 113.267 433.19 114.696C433.19 116.104 432.635 117.139 431.526 117.8ZM443.444 110.12C445.45 110.12 447.071 110.621 448.308 111.624C449.546 112.605 450.164 113.971 450.164 115.72V125H448.052V123.208C446.794 124.68 445.055 125.416 442.836 125.416C441.066 125.416 439.626 125.011 438.516 124.2C437.407 123.389 436.852 122.227 436.852 120.712C436.852 119.133 437.418 117.96 438.548 117.192C439.7 116.403 441.172 116.008 442.964 116.008H448.052V115.72C448.052 114.461 447.626 113.533 446.772 112.936C445.94 112.339 444.81 112.04 443.38 112.04C442.271 112.04 441.322 112.264 440.532 112.712C439.743 113.16 439.188 113.747 438.868 114.472H436.596C437.023 113.107 437.844 112.04 439.06 111.272C440.276 110.504 441.738 110.12 443.444 110.12ZM448.052 119.048V117.928H442.9C440.276 117.928 438.964 118.856 438.964 120.712C438.964 121.629 439.316 122.323 440.02 122.792C440.724 123.261 441.674 123.496 442.868 123.496C444.468 123.496 445.727 123.059 446.644 122.184C447.583 121.309 448.052 120.264 448.052 119.048ZM452.985 112.456V110.536H466.489V112.456H460.793V125H458.681V112.456H452.985ZM482.778 117.608C482.778 118.077 482.757 118.387 482.714 118.536H470.746C470.874 119.944 471.429 121.128 472.41 122.088C473.413 123.027 474.608 123.496 475.994 123.496C478.021 123.496 479.493 122.707 480.41 121.128H482.586C482.074 122.493 481.242 123.549 480.09 124.296C478.96 125.043 477.594 125.416 475.994 125.416C473.861 125.416 472.09 124.701 470.682 123.272C469.274 121.821 468.57 119.976 468.57 117.736C468.57 115.539 469.242 113.725 470.586 112.296C471.952 110.845 473.712 110.12 475.866 110.12C477.85 110.12 479.493 110.835 480.794 112.264C482.117 113.693 482.778 115.475 482.778 117.608ZM470.746 116.616H480.602C480.41 115.272 479.898 114.173 479.066 113.32C478.234 112.467 477.168 112.04 475.866 112.04C474.416 112.04 473.242 112.456 472.346 113.288C471.45 114.12 470.917 115.229 470.746 116.616ZM488.406 110.536H499.542V125H497.43V112.456H490.518V116.712C490.518 117.523 490.507 118.163 490.486 118.632C490.464 119.101 490.411 119.709 490.326 120.456C490.24 121.203 490.091 121.811 489.878 122.28C489.686 122.728 489.419 123.187 489.078 123.656C488.736 124.104 488.278 124.445 487.702 124.68C487.147 124.893 486.486 125 485.718 125H485.11V122.984H485.398C486.08 122.984 486.635 122.813 487.062 122.472C487.51 122.109 487.819 121.576 487.99 120.872C488.182 120.168 488.299 119.539 488.342 118.984C488.384 118.429 488.406 117.693 488.406 116.776V110.536ZM507.019 115.624H512.523C514.229 115.624 515.531 116.083 516.427 117C517.323 117.896 517.771 119.005 517.771 120.328C517.771 121.693 517.323 122.813 516.427 123.688C515.552 124.563 514.251 125 512.523 125H504.907V110.536H507.019V115.624ZM507.019 123.08H512.427C513.451 123.08 514.24 122.845 514.795 122.376C515.371 121.907 515.659 121.224 515.659 120.328C515.659 119.432 515.371 118.749 514.795 118.28C514.24 117.789 513.451 117.544 512.427 117.544H507.019V123.08ZM532.798 110.536H534.91V125H532.798V118.696H523.55V125H521.438V110.536H523.55V116.776H532.798V110.536ZM554.874 110.536H556.986V125H554.874V110.536ZM542.394 115.624H547.098C548.804 115.624 550.106 116.083 551.002 117C551.898 117.896 552.346 119.005 552.346 120.328C552.346 121.693 551.898 122.813 551.002 123.688C550.127 124.563 548.826 125 547.098 125H540.282V110.536H542.394V115.624ZM542.394 123.08H547.002C548.026 123.08 548.815 122.845 549.37 122.376C549.946 121.907 550.234 121.224 550.234 120.328C550.234 119.432 549.946 118.749 549.37 118.28C548.815 117.789 548.026 117.544 547.002 117.544H542.394V123.08ZM564.488 125H562.376V110.536H564.488V121.896L573.736 110.536H575.847V125H573.736V113.64L564.488 125ZM563.464 103.432H565.416C565.544 104.221 565.96 104.904 566.664 105.48C567.389 106.035 568.2 106.312 569.095 106.312C569.992 106.312 570.792 106.035 571.496 105.48C572.221 104.904 572.648 104.221 572.776 103.432H574.728C574.6 104.776 573.992 105.917 572.904 106.856C571.816 107.795 570.546 108.264 569.095 108.264C567.645 108.264 566.376 107.795 565.288 106.856C564.2 105.917 563.592 104.776 563.464 103.432ZM73.808 158.408H71.536C71.1307 157.704 70.544 157.139 69.776 156.712C69.008 156.264 68.1333 156.04 67.152 156.04C65.5947 156.04 64.304 156.595 63.28 157.704C62.2773 158.813 61.776 160.168 61.776 161.768C61.776 163.368 62.2773 164.723 63.28 165.832C64.304 166.941 65.5947 167.496 67.152 167.496C68.1333 167.496 69.008 167.283 69.776 166.856C70.544 166.408 71.1307 165.832 71.536 165.128H73.808C73.296 166.472 72.4533 167.528 71.28 168.296C70.1067 169.043 68.7307 169.416 67.152 169.416C65.04 169.416 63.2587 168.691 61.808 167.24C60.3787 165.768 59.664 163.944 59.664 161.768C59.664 159.592 60.3787 157.779 61.808 156.328C63.2587 154.856 65.04 154.12 67.152 154.12C68.7307 154.12 70.1067 154.504 71.28 155.272C72.4533 156.019 73.296 157.064 73.808 158.408ZM91.1845 161.608C91.1845 162.077 91.1632 162.387 91.1205 162.536H79.1525C79.2805 163.944 79.8352 165.128 80.8165 166.088C81.8192 167.027 83.0138 167.496 84.4005 167.496C86.4272 167.496 87.8992 166.707 88.8165 165.128H90.9925C90.4805 166.493 89.6485 167.549 88.4965 168.296C87.3658 169.043 86.0005 169.416 84.4005 169.416C82.2672 169.416 80.4965 168.701 79.0885 167.272C77.6805 165.821 76.9765 163.976 76.9765 161.736C76.9765 159.539 77.6485 157.725 78.9925 156.296C80.3578 154.845 82.1178 154.12 84.2725 154.12C86.2565 154.12 87.8992 154.835 89.2005 156.264C90.5232 157.693 91.1845 159.475 91.1845 161.608ZM79.1525 160.616H89.0085C88.8165 159.272 88.3045 158.173 87.4725 157.32C86.6405 156.467 85.5738 156.04 84.2725 156.04C82.8218 156.04 81.6485 156.456 80.7525 157.288C79.8565 158.12 79.3232 159.229 79.1525 160.616ZM108.204 156.36C109.505 157.853 110.156 159.656 110.156 161.768C110.156 163.88 109.505 165.683 108.204 167.176C106.924 168.669 105.142 169.416 102.86 169.416C101.729 169.416 100.705 169.203 99.7878 168.776C98.8704 168.349 98.1558 167.816 97.6438 167.176V175.528H95.5318V154.536H97.6438V156.36C98.1558 155.72 98.8704 155.187 99.7878 154.76C100.705 154.333 101.729 154.12 102.86 154.12C105.142 154.12 106.924 154.867 108.204 156.36ZM106.572 165.832C107.553 164.701 108.044 163.347 108.044 161.768C108.044 160.189 107.553 158.845 106.572 157.736C105.612 156.605 104.374 156.04 102.86 156.04C101.366 156.04 100.108 156.541 99.0838 157.544C98.0811 158.525 97.5798 159.933 97.5798 161.768C97.5798 163.603 98.0811 165.021 99.0838 166.024C100.108 167.005 101.366 167.496 102.86 167.496C104.374 167.496 105.612 166.941 106.572 165.832ZM125.605 161.8C126.97 162.397 127.653 163.549 127.653 165.256C127.653 166.344 127.269 167.24 126.501 167.944C125.733 168.648 124.623 169 123.173 169H114.501V154.536H123.077C124.549 154.536 125.658 154.888 126.405 155.592C127.173 156.275 127.557 157.181 127.557 158.312C127.557 160.019 126.906 161.181 125.605 161.8ZM116.613 160.808H122.949C123.738 160.808 124.346 160.627 124.773 160.264C125.221 159.88 125.445 159.336 125.445 158.632C125.445 157.928 125.221 157.395 124.773 157.032C124.346 156.648 123.738 156.456 122.949 156.456H116.613V160.808ZM116.613 167.08H123.045C123.834 167.08 124.442 166.899 124.869 166.536C125.317 166.152 125.541 165.608 125.541 164.904C125.541 164.2 125.317 163.667 124.869 163.304C124.442 162.92 123.834 162.728 123.045 162.728H116.613V167.08ZM134.144 169H132.032V154.536H134.144V165.896L143.392 154.536H145.504V169H143.392V157.64L134.144 169ZM163.996 158.408H161.724C161.318 157.704 160.732 157.139 159.964 156.712C159.196 156.264 158.321 156.04 157.34 156.04C155.782 156.04 154.492 156.595 153.468 157.704C152.465 158.813 151.964 160.168 151.964 161.768C151.964 163.368 152.465 164.723 153.468 165.832C154.492 166.941 155.782 167.496 157.34 167.496C158.321 167.496 159.196 167.283 159.964 166.856C160.732 166.408 161.318 165.832 161.724 165.128H163.996C163.484 166.472 162.641 167.528 161.468 168.296C160.294 169.043 158.918 169.416 157.34 169.416C155.228 169.416 153.446 168.691 151.996 167.24C150.566 165.768 149.852 163.944 149.852 161.768C149.852 159.592 150.566 157.779 151.996 156.328C153.446 154.856 155.228 154.12 157.34 154.12C158.918 154.12 160.294 154.504 161.468 155.272C162.641 156.019 163.484 157.064 163.996 158.408ZM186.98 161.8C188.345 162.397 189.028 163.549 189.028 165.256C189.028 166.344 188.644 167.24 187.876 167.944C187.108 168.648 185.998 169 184.548 169H175.876V154.536H184.452C185.924 154.536 187.033 154.888 187.78 155.592C188.548 156.275 188.932 157.181 188.932 158.312C188.932 160.019 188.281 161.181 186.98 161.8ZM177.988 160.808H184.324C185.113 160.808 185.721 160.627 186.148 160.264C186.596 159.88 186.82 159.336 186.82 158.632C186.82 157.928 186.596 157.395 186.148 157.032C185.721 156.648 185.113 156.456 184.324 156.456H177.988V160.808ZM177.988 167.08H184.42C185.209 167.08 185.817 166.899 186.244 166.536C186.692 166.152 186.916 165.608 186.916 164.904C186.916 164.2 186.692 163.667 186.244 163.304C185.817 162.92 185.209 162.728 184.42 162.728H177.988V167.08ZM213.766 156.36C215.068 157.853 215.718 159.656 215.718 161.768C215.718 163.88 215.068 165.683 213.766 167.176C212.486 168.669 210.705 169.416 208.422 169.416C207.292 169.416 206.268 169.203 205.35 168.776C204.433 168.349 203.718 167.816 203.206 167.176V175.528H201.094V154.536H203.206V156.36C203.718 155.72 204.433 155.187 205.35 154.76C206.268 154.333 207.292 154.12 208.422 154.12C210.705 154.12 212.486 154.867 213.766 156.36ZM212.134 165.832C213.116 164.701 213.606 163.347 213.606 161.768C213.606 160.189 213.116 158.845 212.134 157.736C211.174 156.605 209.937 156.04 208.422 156.04C206.929 156.04 205.67 156.541 204.646 157.544C203.644 158.525 203.142 159.933 203.142 161.768C203.142 163.603 203.644 165.021 204.646 166.024C205.67 167.005 206.929 167.496 208.422 167.496C209.937 167.496 211.174 166.941 212.134 165.832ZM225.663 154.12C227.668 154.12 229.29 154.621 230.527 155.624C231.764 156.605 232.383 157.971 232.383 159.72V169H230.271V167.208C229.012 168.68 227.274 169.416 225.055 169.416C223.284 169.416 221.844 169.011 220.735 168.2C219.626 167.389 219.071 166.227 219.071 164.712C219.071 163.133 219.636 161.96 220.767 161.192C221.919 160.403 223.391 160.008 225.183 160.008H230.271V159.72C230.271 158.461 229.844 157.533 228.991 156.936C228.159 156.339 227.028 156.04 225.599 156.04C224.49 156.04 223.54 156.264 222.751 156.712C221.962 157.16 221.407 157.747 221.087 158.472H218.815C219.242 157.107 220.063 156.04 221.279 155.272C222.495 154.504 223.956 154.12 225.663 154.12ZM230.271 163.048V161.928H225.119C222.495 161.928 221.183 162.856 221.183 164.712C221.183 165.629 221.535 166.323 222.239 166.792C222.943 167.261 223.892 167.496 225.087 167.496C226.687 167.496 227.946 167.059 228.863 166.184C229.802 165.309 230.271 164.264 230.271 163.048ZM252.415 158.408L247.167 169H244.767L239.519 158.408V169H237.407V154.536H239.903L245.983 166.792L252.063 154.536H254.527V169H252.415V158.408ZM259.907 154.536H262.019V161.224L269.507 154.536H272.227L264.099 161.768L272.259 169H269.507L262.019 162.696V169H259.907V154.536ZM280.819 154.12C282.825 154.12 284.446 154.621 285.683 155.624C286.921 156.605 287.539 157.971 287.539 159.72V169H285.427V167.208C284.169 168.68 282.43 169.416 280.211 169.416C278.441 169.416 277.001 169.011 275.891 168.2C274.782 167.389 274.227 166.227 274.227 164.712C274.227 163.133 274.793 161.96 275.923 161.192C277.075 160.403 278.547 160.008 280.339 160.008H285.427V159.72C285.427 158.461 285.001 157.533 284.147 156.936C283.315 156.339 282.185 156.04 280.755 156.04C279.646 156.04 278.697 156.264 277.907 156.712C277.118 157.16 276.563 157.747 276.243 158.472H273.971C274.398 157.107 275.219 156.04 276.435 155.272C277.651 154.504 279.113 154.12 280.819 154.12ZM285.427 163.048V161.928H280.275C277.651 161.928 276.339 162.856 276.339 164.712C276.339 165.629 276.691 166.323 277.395 166.792C278.099 167.261 279.049 167.496 280.243 167.496C281.843 167.496 283.102 167.059 284.019 166.184C284.958 165.309 285.427 164.264 285.427 163.048ZM304.915 154.536L299.027 161.704L305.043 169H302.419L297.715 163.304L293.043 169H290.515L296.467 161.768L290.547 154.536H293.171L297.779 160.168L302.387 154.536H304.915ZM327.073 161.8C328.439 162.397 329.121 163.549 329.121 165.256C329.121 166.344 328.737 167.24 327.969 167.944C327.201 168.648 326.092 169 324.641 169H315.969V154.536H324.545C326.017 154.536 327.127 154.888 327.873 155.592C328.641 156.275 329.025 157.181 329.025 158.312C329.025 160.019 328.375 161.181 327.073 161.8ZM318.081 160.808H324.417C325.207 160.808 325.815 160.627 326.241 160.264C326.689 159.88 326.913 159.336 326.913 158.632C326.913 157.928 326.689 157.395 326.241 157.032C325.815 156.648 325.207 156.456 324.417 156.456H318.081V160.808ZM318.081 167.08H324.513C325.303 167.08 325.911 166.899 326.337 166.536C326.785 166.152 327.009 165.608 327.009 164.904C327.009 164.2 326.785 163.667 326.337 163.304C325.911 162.92 325.303 162.728 324.513 162.728H318.081V167.08ZM346.621 158.408H344.349C343.943 157.704 343.357 157.139 342.589 156.712C341.821 156.264 340.946 156.04 339.965 156.04C338.407 156.04 337.117 156.595 336.093 157.704C335.09 158.813 334.589 160.168 334.589 161.768C334.589 163.368 335.09 164.723 336.093 165.832C337.117 166.941 338.407 167.496 339.965 167.496C340.946 167.496 341.821 167.283 342.589 166.856C343.357 166.408 343.943 165.832 344.349 165.128H346.621C346.109 166.472 345.266 167.528 344.093 168.296C342.919 169.043 341.543 169.416 339.965 169.416C337.853 169.416 336.071 168.691 334.621 167.24C333.191 165.768 332.477 163.944 332.477 161.768C332.477 159.592 333.191 157.779 334.621 156.328C336.071 154.856 337.853 154.12 339.965 154.12C341.543 154.12 342.919 154.504 344.093 155.272C345.266 156.019 346.109 157.064 346.621 158.408ZM363.997 161.608C363.997 162.077 363.976 162.387 363.933 162.536H351.965C352.093 163.944 352.648 165.128 353.629 166.088C354.632 167.027 355.826 167.496 357.213 167.496C359.24 167.496 360.712 166.707 361.629 165.128H363.805C363.293 166.493 362.461 167.549 361.309 168.296C360.178 169.043 358.813 169.416 357.213 169.416C355.08 169.416 353.309 168.701 351.901 167.272C350.493 165.821 349.789 163.976 349.789 161.736C349.789 159.539 350.461 157.725 351.805 156.296C353.17 154.845 354.93 154.12 357.085 154.12C359.069 154.12 360.712 154.835 362.013 156.264C363.336 157.693 363.997 159.475 363.997 161.608ZM351.965 160.616H361.821C361.629 159.272 361.117 158.173 360.285 157.32C359.453 156.467 358.386 156.04 357.085 156.04C355.634 156.04 354.461 156.456 353.565 157.288C352.669 158.12 352.136 159.229 351.965 160.616ZM381.016 156.36C382.318 157.853 382.968 159.656 382.968 161.768C382.968 163.88 382.318 165.683 381.016 167.176C379.736 168.669 377.955 169.416 375.672 169.416C374.542 169.416 373.518 169.203 372.6 168.776C371.683 168.349 370.968 167.816 370.456 167.176V175.528H368.344V154.536H370.456V156.36C370.968 155.72 371.683 155.187 372.6 154.76C373.518 154.333 374.542 154.12 375.672 154.12C377.955 154.12 379.736 154.867 381.016 156.36ZM379.384 165.832C380.366 164.701 380.856 163.347 380.856 161.768C380.856 160.189 380.366 158.845 379.384 157.736C378.424 156.605 377.187 156.04 375.672 156.04C374.179 156.04 372.92 156.541 371.896 157.544C370.894 158.525 370.392 159.933 370.392 161.768C370.392 163.603 370.894 165.021 371.896 166.024C372.92 167.005 374.179 167.496 375.672 167.496C377.187 167.496 378.424 166.941 379.384 165.832ZM399.057 156.296C400.465 157.747 401.169 159.571 401.169 161.768C401.169 163.965 400.465 165.789 399.057 167.24C397.649 168.691 395.878 169.416 393.745 169.416C391.612 169.416 389.83 168.691 388.401 167.24C386.993 165.789 386.289 163.965 386.289 161.768C386.289 159.571 386.993 157.747 388.401 156.296C389.83 154.845 391.612 154.12 393.745 154.12C395.878 154.12 397.649 154.845 399.057 156.296ZM397.585 165.864C398.566 164.755 399.057 163.389 399.057 161.768C399.057 160.147 398.566 158.792 397.585 157.704C396.604 156.595 395.324 156.04 393.745 156.04C392.166 156.04 390.876 156.595 389.873 157.704C388.892 158.792 388.401 160.147 388.401 161.768C388.401 163.389 388.892 164.755 389.873 165.864C390.876 166.952 392.166 167.496 393.745 167.496C395.324 167.496 396.604 166.952 397.585 165.864ZM418.683 158.408H416.411C416.006 157.704 415.419 157.139 414.651 156.712C413.883 156.264 413.008 156.04 412.027 156.04C410.47 156.04 409.179 156.595 408.155 157.704C407.152 158.813 406.651 160.168 406.651 161.768C406.651 163.368 407.152 164.723 408.155 165.832C409.179 166.941 410.47 167.496 412.027 167.496C413.008 167.496 413.883 167.283 414.651 166.856C415.419 166.408 416.006 165.832 416.411 165.128H418.683C418.171 166.472 417.328 167.528 416.155 168.296C414.982 169.043 413.606 169.416 412.027 169.416C409.915 169.416 408.134 168.691 406.683 167.24C405.254 165.768 404.539 163.944 404.539 161.768C404.539 159.592 405.254 157.779 406.683 156.328C408.134 154.856 409.915 154.12 412.027 154.12C413.606 154.12 414.982 154.504 416.155 155.272C417.328 156.019 418.171 157.064 418.683 158.408ZM435.996 158.408H433.724C433.318 157.704 432.732 157.139 431.964 156.712C431.196 156.264 430.321 156.04 429.34 156.04C427.782 156.04 426.492 156.595 425.468 157.704C424.465 158.813 423.964 160.168 423.964 161.768C423.964 163.368 424.465 164.723 425.468 165.832C426.492 166.941 427.782 167.496 429.34 167.496C430.321 167.496 431.196 167.283 431.964 166.856C432.732 166.408 433.318 165.832 433.724 165.128H435.996C435.484 166.472 434.641 167.528 433.468 168.296C432.294 169.043 430.918 169.416 429.34 169.416C427.228 169.416 425.446 168.691 423.996 167.24C422.566 165.768 421.852 163.944 421.852 161.768C421.852 159.592 422.566 157.779 423.996 156.328C425.446 154.856 427.228 154.12 429.34 154.12C430.918 154.12 432.294 154.504 433.468 155.272C434.641 156.019 435.484 157.064 435.996 158.408ZM442.3 169H440.188V154.536H442.3V165.896L451.548 154.536H453.66V169H451.548V157.64L442.3 169ZM461.144 169H459.032V154.536H461.144V165.896L470.392 154.536H472.504V169H470.392V157.64L461.144 169ZM460.12 147.432H462.072C462.2 148.221 462.616 148.904 463.32 149.48C464.045 150.035 464.856 150.312 465.752 150.312C466.648 150.312 467.448 150.035 468.152 149.48C468.877 148.904 469.304 148.221 469.432 147.432H471.384C471.256 148.776 470.648 149.917 469.56 150.856C468.472 151.795 467.202 152.264 465.752 152.264C464.301 152.264 463.032 151.795 461.944 150.856C460.856 149.917 460.248 148.776 460.12 147.432ZM490.996 158.408H488.724C488.318 157.704 487.732 157.139 486.964 156.712C486.196 156.264 485.321 156.04 484.34 156.04C482.782 156.04 481.492 156.595 480.468 157.704C479.465 158.813 478.964 160.168 478.964 161.768C478.964 163.368 479.465 164.723 480.468 165.832C481.492 166.941 482.782 167.496 484.34 167.496C485.321 167.496 486.196 167.283 486.964 166.856C487.732 166.408 488.318 165.832 488.724 165.128H490.996C490.484 166.472 489.641 167.528 488.468 168.296C487.294 169.043 485.918 169.416 484.34 169.416C482.228 169.416 480.446 168.691 478.996 167.24C477.566 165.768 476.852 163.944 476.852 161.768C476.852 159.592 477.566 157.779 478.996 156.328C480.446 154.856 482.228 154.12 484.34 154.12C485.918 154.12 487.294 154.504 488.468 155.272C489.641 156.019 490.484 157.064 490.996 158.408ZM495.188 154.536H497.3V161.224L504.788 154.536H507.508L499.38 161.768L507.54 169H504.788L497.3 162.696V169H495.188V154.536ZM521.901 156.296C523.309 157.747 524.013 159.571 524.013 161.768C524.013 163.965 523.309 165.789 521.901 167.24C520.493 168.691 518.722 169.416 516.589 169.416C514.455 169.416 512.674 168.691 511.245 167.24C509.837 165.789 509.133 163.965 509.133 161.768C509.133 159.571 509.837 157.747 511.245 156.296C512.674 154.845 514.455 154.12 516.589 154.12C518.722 154.12 520.493 154.845 521.901 156.296ZM520.429 165.864C521.41 164.755 521.901 163.389 521.901 161.768C521.901 160.147 521.41 158.792 520.429 157.704C519.447 156.595 518.167 156.04 516.589 156.04C515.01 156.04 513.719 156.595 512.717 157.704C511.735 158.792 511.245 160.147 511.245 161.768C511.245 163.389 511.735 164.755 512.717 165.864C513.719 166.952 515.01 167.496 516.589 167.496C518.167 167.496 519.447 166.952 520.429 165.864ZM530.519 169H528.407V154.536H530.519V165.896L539.767 154.536H541.879V169H539.767V157.64L530.519 169ZM529.495 147.432H531.447C531.575 148.221 531.991 148.904 532.695 149.48C533.42 150.035 534.231 150.312 535.127 150.312C536.023 150.312 536.823 150.035 537.527 149.48C538.252 148.904 538.679 148.221 538.807 147.432H540.759C540.631 148.776 540.023 149.917 538.935 150.856C537.847 151.795 536.577 152.264 535.127 152.264C533.676 152.264 532.407 151.795 531.319 150.856C530.231 149.917 529.623 148.776 529.495 147.432ZM72.048 198.536H74.16V213H72.048V206.696H62.8V213H60.688V198.536H62.8V204.776H72.048V198.536ZM85.1318 198.12C87.1371 198.12 88.7584 198.621 89.9958 199.624C91.2331 200.605 91.8518 201.971 91.8518 203.72V213H89.7398V211.208C88.4811 212.68 86.7424 213.416 84.5238 213.416C82.7531 213.416 81.3131 213.011 80.2038 212.2C79.0944 211.389 78.5398 210.227 78.5398 208.712C78.5398 207.133 79.1051 205.96 80.2358 205.192C81.3878 204.403 82.8598 204.008 84.6518 204.008H89.7398V203.72C89.7398 202.461 89.3131 201.533 88.4598 200.936C87.6278 200.339 86.4971 200.04 85.0677 200.04C83.9584 200.04 83.0091 200.264 82.2198 200.712C81.4304 201.16 80.8758 201.747 80.5558 202.472H78.2838C78.7104 201.107 79.5318 200.04 80.7478 199.272C81.9638 198.504 83.4251 198.12 85.1318 198.12ZM89.7398 207.048V205.928H84.5878C81.9638 205.928 80.6518 206.856 80.6518 208.712C80.6518 209.629 81.0038 210.323 81.7078 210.792C82.4118 211.261 83.3611 211.496 84.5558 211.496C86.1558 211.496 87.4144 211.059 88.3318 210.184C89.2704 209.309 89.7398 208.264 89.7398 207.048ZM94.2575 198.536H96.5935L102.002 210.504L107.41 198.536H109.618L102.994 213.096C102.78 213.565 102.503 214.195 102.161 214.984C101.82 215.773 101.564 216.328 101.394 216.648C101.244 216.968 101.02 217.363 100.722 217.832C100.444 218.323 100.167 218.653 99.8895 218.824C99.6335 218.995 99.2922 219.155 98.8655 219.304C98.4602 219.453 97.9802 219.528 97.4255 219.528H96.2735V217.608H96.7855C97.6815 217.608 98.3535 217.373 98.8015 216.904C99.2708 216.456 99.7722 215.581 100.306 214.28L100.85 212.968L94.2575 198.536ZM111.762 203.048V198.536H113.874V202.92C113.874 203.965 114.172 204.723 114.77 205.192C115.388 205.64 116.466 205.864 118.002 205.864C119.303 205.864 120.903 205.715 122.802 205.416V198.536H124.914V213H122.802V207.304C122.439 207.432 121.735 207.549 120.69 207.656C119.666 207.741 118.823 207.784 118.161 207.784C113.895 207.784 111.762 206.205 111.762 203.048ZM141.642 198.536H143.754V213H141.642V206.696H132.394V213H130.282V198.536H132.394V204.776H141.642V198.536ZM160.87 200.296C162.278 201.747 162.982 203.571 162.982 205.768C162.982 207.965 162.278 209.789 160.87 211.24C159.462 212.691 157.691 213.416 155.558 213.416C153.424 213.416 151.643 212.691 150.214 211.24C148.806 209.789 148.102 207.965 148.102 205.768C148.102 203.571 148.806 201.747 150.214 200.296C151.643 198.845 153.424 198.12 155.558 198.12C157.691 198.12 159.462 198.845 160.87 200.296ZM159.398 209.864C160.379 208.755 160.87 207.389 160.87 205.768C160.87 204.147 160.379 202.792 159.398 201.704C158.416 200.595 157.136 200.04 155.558 200.04C153.979 200.04 152.688 200.595 151.686 201.704C150.704 202.792 150.214 204.147 150.214 205.768C150.214 207.389 150.704 208.755 151.686 209.864C152.688 210.952 153.979 211.496 155.558 211.496C157.136 211.496 158.416 210.952 159.398 209.864ZM167.492 203.816H175.78V205.832H167.492V203.816ZM178.766 200.456V198.536H192.27V200.456H186.574V213H184.462V200.456H178.766ZM208.56 205.608C208.56 206.077 208.538 206.387 208.496 206.536H196.528C196.656 207.944 197.21 209.128 198.192 210.088C199.194 211.027 200.389 211.496 201.776 211.496C203.802 211.496 205.274 210.707 206.192 209.128H208.368C207.856 210.493 207.024 211.549 205.872 212.296C204.741 213.043 203.376 213.416 201.776 213.416C199.642 213.416 197.872 212.701 196.464 211.272C195.056 209.821 194.352 207.976 194.352 205.736C194.352 203.539 195.024 201.725 196.368 200.296C197.733 198.845 199.493 198.12 201.648 198.12C203.632 198.12 205.274 198.835 206.576 200.264C207.898 201.693 208.56 203.475 208.56 205.608ZM196.528 204.616H206.384C206.192 203.272 205.68 202.173 204.848 201.32C204.016 200.467 202.949 200.04 201.648 200.04C200.197 200.04 199.024 200.456 198.128 201.288C197.232 202.12 196.698 203.229 196.528 204.616ZM224.915 198.536L219.027 205.704L225.043 213H222.419L217.715 207.304L213.043 213H210.515L216.467 205.768L210.547 198.536H213.171L217.779 204.168L222.387 198.536H224.915ZM239.642 198.536H241.754V213H239.642V206.696H230.394V213H228.282V198.536H230.394V204.776H239.642V198.536ZM258.87 200.296C260.278 201.747 260.982 203.571 260.982 205.768C260.982 207.965 260.278 209.789 258.87 211.24C257.462 212.691 255.691 213.416 253.558 213.416C251.424 213.416 249.643 212.691 248.214 211.24C246.806 209.789 246.102 207.965 246.102 205.768C246.102 203.571 246.806 201.747 248.214 200.296C249.643 198.845 251.424 198.12 253.558 198.12C255.691 198.12 257.462 198.845 258.87 200.296ZM257.398 209.864C258.379 208.755 258.87 207.389 258.87 205.768C258.87 204.147 258.379 202.792 257.398 201.704C256.416 200.595 255.136 200.04 253.558 200.04C251.979 200.04 250.688 200.595 249.686 201.704C248.704 202.792 248.214 204.147 248.214 205.768C248.214 207.389 248.704 208.755 249.686 209.864C250.688 210.952 251.979 211.496 253.558 211.496C255.136 211.496 256.416 210.952 257.398 209.864ZM266.656 198.536H277.792V213H275.68V200.456H268.768V204.712C268.768 205.523 268.757 206.163 268.736 206.632C268.714 207.101 268.661 207.709 268.576 208.456C268.49 209.203 268.341 209.811 268.128 210.28C267.936 210.728 267.669 211.187 267.328 211.656C266.986 212.104 266.528 212.445 265.952 212.68C265.397 212.893 264.736 213 263.968 213H263.36V210.984H263.648C264.33 210.984 264.885 210.813 265.312 210.472C265.76 210.109 266.069 209.576 266.24 208.872C266.432 208.168 266.549 207.539 266.592 206.984C266.634 206.429 266.656 205.693 266.656 204.776V198.536ZM294.901 200.296C296.309 201.747 297.013 203.571 297.013 205.768C297.013 207.965 296.309 209.789 294.901 211.24C293.493 212.691 291.722 213.416 289.589 213.416C287.455 213.416 285.674 212.691 284.245 211.24C282.837 209.789 282.133 207.965 282.133 205.768C282.133 203.571 282.837 201.747 284.245 200.296C285.674 198.845 287.455 198.12 289.589 198.12C291.722 198.12 293.493 198.845 294.901 200.296ZM293.429 209.864C294.41 208.755 294.901 207.389 294.901 205.768C294.901 204.147 294.41 202.792 293.429 201.704C292.447 200.595 291.167 200.04 289.589 200.04C288.01 200.04 286.719 200.595 285.717 201.704C284.735 202.792 284.245 204.147 284.245 205.768C284.245 207.389 284.735 208.755 285.717 209.864C286.719 210.952 288.01 211.496 289.589 211.496C291.167 211.496 292.447 210.952 293.429 209.864ZM301.407 198.536H312.511V200.456H303.519V213H301.407V198.536ZM318.3 213H316.188V198.536H318.3V209.896L327.548 198.536H329.66V213H327.548V201.64L318.3 213ZM334.168 203.048V198.536H336.28V202.92C336.28 203.965 336.578 204.723 337.176 205.192C337.794 205.64 338.872 205.864 340.408 205.864C341.709 205.864 343.309 205.715 345.208 205.416V198.536H347.32V213H345.208V207.304C344.845 207.432 344.141 207.549 343.096 207.656C342.072 207.741 341.229 207.784 340.568 207.784C336.301 207.784 334.168 206.205 334.168 203.048ZM365.872 205.608C365.872 206.077 365.851 206.387 365.808 206.536H353.84C353.968 207.944 354.523 209.128 355.504 210.088C356.507 211.027 357.701 211.496 359.088 211.496C361.115 211.496 362.587 210.707 363.504 209.128H365.68C365.168 210.493 364.336 211.549 363.184 212.296C362.053 213.043 360.688 213.416 359.088 213.416C356.955 213.416 355.184 212.701 353.776 211.272C352.368 209.821 351.664 207.976 351.664 205.736C351.664 203.539 352.336 201.725 353.68 200.296C355.045 198.845 356.805 198.12 358.96 198.12C360.944 198.12 362.587 198.835 363.888 200.264C365.211 201.693 365.872 203.475 365.872 205.608ZM353.84 204.616H363.696C363.504 203.272 362.992 202.173 362.16 201.32C361.328 200.467 360.261 200.04 358.96 200.04C357.509 200.04 356.336 200.456 355.44 201.288C354.544 202.12 354.011 203.229 353.84 204.616ZM383.339 202.408H381.067C380.662 201.704 380.075 201.139 379.307 200.712C378.539 200.264 377.665 200.04 376.683 200.04C375.126 200.04 373.835 200.595 372.811 201.704C371.809 202.813 371.307 204.168 371.307 205.768C371.307 207.368 371.809 208.723 372.811 209.832C373.835 210.941 375.126 211.496 376.683 211.496C377.665 211.496 378.539 211.283 379.307 210.856C380.075 210.408 380.662 209.832 381.067 209.128H383.339C382.827 210.472 381.985 211.528 380.811 212.296C379.638 213.043 378.262 213.416 376.683 213.416C374.571 213.416 372.79 212.691 371.339 211.24C369.91 209.768 369.195 207.944 369.195 205.768C369.195 203.592 369.91 201.779 371.339 200.328C372.79 198.856 374.571 198.12 376.683 198.12C378.262 198.12 379.638 198.504 380.811 199.272C381.985 200.019 382.827 201.064 383.339 202.408ZM387.532 198.536H389.644V205.224L397.132 198.536H399.852L391.724 205.768L399.884 213H397.132L389.644 206.696V213H387.532V198.536ZM414.245 200.296C415.653 201.747 416.357 203.571 416.357 205.768C416.357 207.965 415.653 209.789 414.245 211.24C412.837 212.691 411.066 213.416 408.933 213.416C406.799 213.416 405.018 212.691 403.589 211.24C402.181 209.789 401.477 207.965 401.477 205.768C401.477 203.571 402.181 201.747 403.589 200.296C405.018 198.845 406.799 198.12 408.933 198.12C411.066 198.12 412.837 198.845 414.245 200.296ZM412.773 209.864C413.754 208.755 414.245 207.389 414.245 205.768C414.245 204.147 413.754 202.792 412.773 201.704C411.791 200.595 410.511 200.04 408.933 200.04C407.354 200.04 406.063 200.595 405.061 201.704C404.079 202.792 403.589 204.147 403.589 205.768C403.589 207.389 404.079 208.755 405.061 209.864C406.063 210.952 407.354 211.496 408.933 211.496C410.511 211.496 411.791 210.952 412.773 209.864ZM422.863 213H420.751V198.536H422.863V209.896L432.111 198.536H434.222V213H432.111V201.64L422.863 213ZM421.839 191.432H423.791C423.919 192.221 424.335 192.904 425.039 193.48C425.764 194.035 426.575 194.312 427.47 194.312C428.367 194.312 429.167 194.035 429.871 193.48C430.596 192.904 431.023 192.221 431.151 191.432H433.103C432.975 192.776 432.367 193.917 431.279 194.856C430.191 195.795 428.921 196.264 427.47 196.264C426.02 196.264 424.751 195.795 423.663 194.856C422.575 193.917 421.967 192.776 421.839 191.432ZM60.688 242.536H73.872V257H71.76V244.456H62.8V257H60.688V242.536ZM91.9225 244.36C93.2238 245.853 93.8745 247.656 93.8745 249.768C93.8745 251.88 93.2238 253.683 91.9225 255.176C90.6425 256.669 88.8612 257.416 86.5785 257.416C85.4478 257.416 84.4238 257.203 83.5065 256.776C82.5892 256.349 81.8745 255.816 81.3625 255.176V263.528H79.2505V242.536H81.3625V244.36C81.8745 243.72 82.5892 243.187 83.5065 242.76C84.4238 242.333 85.4478 242.12 86.5785 242.12C88.8612 242.12 90.6425 242.867 91.9225 244.36ZM90.2905 253.832C91.2718 252.701 91.7625 251.347 91.7625 249.768C91.7625 248.189 91.2718 246.845 90.2905 245.736C89.3305 244.605 88.0932 244.04 86.5785 244.04C85.0852 244.04 83.8265 244.541 82.8025 245.544C81.7998 246.525 81.2985 247.933 81.2985 249.768C81.2985 251.603 81.7998 253.021 82.8025 254.024C83.8265 255.005 85.0852 255.496 86.5785 255.496C88.0932 255.496 89.3305 254.941 90.2905 253.832ZM109.963 244.296C111.371 245.747 112.075 247.571 112.075 249.768C112.075 251.965 111.371 253.789 109.963 255.24C108.555 256.691 106.785 257.416 104.651 257.416C102.518 257.416 100.737 256.691 99.3073 255.24C97.8993 253.789 97.1953 251.965 97.1953 249.768C97.1953 247.571 97.8993 245.747 99.3073 244.296C100.737 242.845 102.518 242.12 104.651 242.12C106.785 242.12 108.555 242.845 109.963 244.296ZM108.491 253.864C109.473 252.755 109.963 251.389 109.963 249.768C109.963 248.147 109.473 246.792 108.491 245.704C107.51 244.595 106.23 244.04 104.651 244.04C103.073 244.04 101.782 244.595 100.779 245.704C99.7979 246.792 99.3073 248.147 99.3073 249.768C99.3073 251.389 99.7979 252.755 100.779 253.864C101.782 254.952 103.073 255.496 104.651 255.496C106.23 255.496 107.51 254.952 108.491 253.864ZM116.469 242.536H127.573V244.456H118.581V257H116.469V242.536ZM143.923 244.36C145.224 245.853 145.875 247.656 145.875 249.768C145.875 251.88 145.224 253.683 143.923 255.176C142.643 256.669 140.861 257.416 138.579 257.416C137.448 257.416 136.424 257.203 135.507 256.776C134.589 256.349 133.875 255.816 133.363 255.176V263.528H131.251V242.536H133.363V244.36C133.875 243.72 134.589 243.187 135.507 242.76C136.424 242.333 137.448 242.12 138.579 242.12C140.861 242.12 142.643 242.867 143.923 244.36ZM142.291 253.832C143.272 252.701 143.763 251.347 143.763 249.768C143.763 248.189 143.272 246.845 142.291 245.736C141.331 244.605 140.093 244.04 138.579 244.04C137.085 244.04 135.827 244.541 134.803 245.544C133.8 246.525 133.299 247.933 133.299 249.768C133.299 251.603 133.8 253.021 134.803 254.024C135.827 255.005 137.085 255.496 138.579 255.496C140.093 255.496 141.331 254.941 142.291 253.832ZM155.819 242.12C157.825 242.12 159.446 242.621 160.683 243.624C161.921 244.605 162.539 245.971 162.539 247.72V257H160.427V255.208C159.169 256.68 157.43 257.416 155.211 257.416C153.441 257.416 152.001 257.011 150.891 256.2C149.782 255.389 149.227 254.227 149.227 252.712C149.227 251.133 149.793 249.96 150.923 249.192C152.075 248.403 153.547 248.008 155.339 248.008H160.427V247.72C160.427 246.461 160.001 245.533 159.147 244.936C158.315 244.339 157.185 244.04 155.755 244.04C154.646 244.04 153.697 244.264 152.907 244.712C152.118 245.16 151.563 245.747 151.243 246.472H148.971C149.398 245.107 150.219 244.04 151.435 243.272C152.651 242.504 154.113 242.12 155.819 242.12ZM160.427 251.048V249.928H155.275C152.651 249.928 151.339 250.856 151.339 252.712C151.339 253.629 151.691 254.323 152.395 254.792C153.099 255.261 154.049 255.496 155.243 255.496C156.843 255.496 158.102 255.059 159.019 254.184C159.958 253.309 160.427 252.264 160.427 251.048ZM182.571 246.408L177.323 257H174.923L169.675 246.408V257H167.563V242.536H170.059L176.139 254.792L182.219 242.536H184.683V257H182.571V246.408ZM205.071 246.408L199.823 257H197.423L192.175 246.408V257H190.063V242.536H192.559L198.639 254.792L204.719 242.536H207.183V257H205.071V246.408ZM227.155 242.536H229.267V257H227.155V242.536ZM214.675 247.624H219.379C221.086 247.624 222.387 248.083 223.283 249C224.179 249.896 224.627 251.005 224.627 252.328C224.627 253.693 224.179 254.813 223.283 255.688C222.408 256.563 221.107 257 219.379 257H212.563V242.536H214.675V247.624ZM214.675 255.08H219.283C220.307 255.08 221.096 254.845 221.651 254.376C222.227 253.907 222.515 253.224 222.515 252.328C222.515 251.432 222.227 250.749 221.651 250.28C221.096 249.789 220.307 249.544 219.283 249.544H214.675V255.08ZM242.344 242.536H255.528V257H253.416V244.456H244.456V257H242.344V242.536ZM272.651 244.296C274.059 245.747 274.763 247.571 274.763 249.768C274.763 251.965 274.059 253.789 272.651 255.24C271.243 256.691 269.472 257.416 267.339 257.416C265.205 257.416 263.424 256.691 261.995 255.24C260.587 253.789 259.883 251.965 259.883 249.768C259.883 247.571 260.587 245.747 261.995 244.296C263.424 242.845 265.205 242.12 267.339 242.12C269.472 242.12 271.243 242.845 272.651 244.296ZM271.179 253.864C272.16 252.755 272.651 251.389 272.651 249.768C272.651 248.147 272.16 246.792 271.179 245.704C270.197 244.595 268.917 244.04 267.339 244.04C265.76 244.04 264.469 244.595 263.467 245.704C262.485 246.792 261.995 248.147 261.995 249.768C261.995 251.389 262.485 252.755 263.467 253.864C264.469 254.952 265.76 255.496 267.339 255.496C268.917 255.496 270.197 254.952 271.179 253.864ZM299.516 244.36C300.818 245.853 301.468 247.656 301.468 249.768C301.468 251.88 300.818 253.683 299.516 255.176C298.236 256.669 296.455 257.416 294.172 257.416C293.042 257.416 292.018 257.203 291.1 256.776C290.183 256.349 289.468 255.816 288.956 255.176V263.528H286.844V242.536H288.956V244.36C289.468 243.72 290.183 243.187 291.1 242.76C292.018 242.333 293.042 242.12 294.172 242.12C296.455 242.12 298.236 242.867 299.516 244.36ZM297.884 253.832C298.866 252.701 299.356 251.347 299.356 249.768C299.356 248.189 298.866 246.845 297.884 245.736C296.924 244.605 295.687 244.04 294.172 244.04C292.679 244.04 291.42 244.541 290.396 245.544C289.394 246.525 288.892 247.933 288.892 249.768C288.892 251.603 289.394 253.021 290.396 254.024C291.42 255.005 292.679 255.496 294.172 255.496C295.687 255.496 296.924 254.941 297.884 253.832ZM318.997 249.608C318.997 250.077 318.976 250.387 318.933 250.536H306.965C307.093 251.944 307.648 253.128 308.629 254.088C309.632 255.027 310.826 255.496 312.213 255.496C314.24 255.496 315.712 254.707 316.629 253.128H318.805C318.293 254.493 317.461 255.549 316.309 256.296C315.178 257.043 313.813 257.416 312.213 257.416C310.08 257.416 308.309 256.701 306.901 255.272C305.493 253.821 304.789 251.976 304.789 249.736C304.789 247.539 305.461 245.725 306.805 244.296C308.17 242.845 309.93 242.12 312.085 242.12C314.069 242.12 315.712 242.835 317.013 244.264C318.336 245.693 318.997 247.475 318.997 249.608ZM306.965 248.616H316.821C316.629 247.272 316.117 246.173 315.285 245.32C314.453 244.467 313.386 244.04 312.085 244.04C310.634 244.04 309.461 244.456 308.565 245.288C307.669 246.12 307.136 247.229 306.965 248.616ZM343.504 257H323.344V242.536H325.456V255.08H332.368V242.536H334.48V255.08H341.392V242.536H343.504V257ZM362.06 249.608C362.06 250.077 362.038 250.387 361.996 250.536H350.028C350.156 251.944 350.71 253.128 351.692 254.088C352.694 255.027 353.889 255.496 355.276 255.496C357.302 255.496 358.774 254.707 359.692 253.128H361.868C361.356 254.493 360.524 255.549 359.372 256.296C358.241 257.043 356.876 257.416 355.276 257.416C353.142 257.416 351.372 256.701 349.964 255.272C348.556 253.821 347.852 251.976 347.852 249.736C347.852 247.539 348.524 245.725 349.868 244.296C351.233 242.845 352.993 242.12 355.148 242.12C357.132 242.12 358.774 242.835 360.076 244.264C361.398 245.693 362.06 247.475 362.06 249.608ZM350.028 248.616H359.884C359.692 247.272 359.18 246.173 358.348 245.32C357.516 244.467 356.449 244.04 355.148 244.04C353.697 244.04 352.524 244.456 351.628 245.288C350.732 246.12 350.198 247.229 350.028 248.616ZM377.767 242.536H379.879V257H377.767V250.696H368.519V257H366.407V242.536H368.519V248.776H377.767V242.536ZM387.363 257H385.251V242.536H387.363V253.896L396.611 242.536H398.722V257H396.611V245.64L387.363 257ZM421.758 244.296C423.166 245.747 423.87 247.571 423.87 249.768C423.87 251.965 423.166 253.789 421.758 255.24C420.372 256.691 418.633 257.416 416.542 257.416C414.58 257.416 412.926 256.797 411.582 255.56C410.238 254.301 409.46 252.68 409.246 250.696H406.206V257H404.094V242.536H406.206V248.776H409.246C409.46 246.835 410.249 245.245 411.614 244.008C412.98 242.749 414.622 242.12 416.542 242.12C418.633 242.12 420.372 242.845 421.758 244.296ZM420.318 253.864C421.278 252.755 421.758 251.389 421.758 249.768C421.758 248.147 421.278 246.792 420.318 245.704C419.358 244.595 418.1 244.04 416.542 244.04C414.985 244.04 413.726 244.595 412.766 245.704C411.806 246.792 411.326 248.147 411.326 249.768C411.326 251.389 411.806 252.755 412.766 253.864C413.726 254.952 414.985 255.496 416.542 255.496C418.1 255.496 419.358 254.952 420.318 253.864ZM435.938 242.536H449.122V257H447.01V244.456H438.05V257H435.938V242.536ZM467.173 244.36C468.474 245.853 469.125 247.656 469.125 249.768C469.125 251.88 468.474 253.683 467.173 255.176C465.893 256.669 464.111 257.416 461.829 257.416C460.698 257.416 459.674 257.203 458.757 256.776C457.839 256.349 457.125 255.816 456.613 255.176V263.528H454.501V242.536H456.613V244.36C457.125 243.72 457.839 243.187 458.757 242.76C459.674 242.333 460.698 242.12 461.829 242.12C464.111 242.12 465.893 242.867 467.173 244.36ZM465.541 253.832C466.522 252.701 467.013 251.347 467.013 249.768C467.013 248.189 466.522 246.845 465.541 245.736C464.581 244.605 463.343 244.04 461.829 244.04C460.335 244.04 459.077 244.541 458.053 245.544C457.05 246.525 456.549 247.933 456.549 249.768C456.549 251.603 457.05 253.021 458.053 254.024C459.077 255.005 460.335 255.496 461.829 255.496C463.343 255.496 464.581 254.941 465.541 253.832ZM485.213 244.296C486.621 245.747 487.325 247.571 487.325 249.768C487.325 251.965 486.621 253.789 485.213 255.24C483.805 256.691 482.035 257.416 479.901 257.416C477.768 257.416 475.987 256.691 474.557 255.24C473.149 253.789 472.445 251.965 472.445 249.768C472.445 247.571 473.149 245.747 474.557 244.296C475.987 242.845 477.768 242.12 479.901 242.12C482.035 242.12 483.805 242.845 485.213 244.296ZM483.741 253.864C484.723 252.755 485.213 251.389 485.213 249.768C485.213 248.147 484.723 246.792 483.741 245.704C482.76 244.595 481.48 244.04 479.901 244.04C478.323 244.04 477.032 244.595 476.029 245.704C475.048 246.792 474.557 248.147 474.557 249.768C474.557 251.389 475.048 252.755 476.029 253.864C477.032 254.952 478.323 255.496 479.901 255.496C481.48 255.496 482.76 254.952 483.741 253.864ZM504.903 249.608C504.903 250.077 504.882 250.387 504.839 250.536H492.871C492.999 251.944 493.554 253.128 494.535 254.088C495.538 255.027 496.733 255.496 498.119 255.496C500.146 255.496 501.618 254.707 502.535 253.128H504.711C504.199 254.493 503.367 255.549 502.215 256.296C501.085 257.043 499.719 257.416 498.119 257.416C495.986 257.416 494.215 256.701 492.807 255.272C491.399 253.821 490.695 251.976 490.695 249.736C490.695 247.539 491.367 245.725 492.711 244.296C494.077 242.845 495.837 242.12 497.991 242.12C499.975 242.12 501.618 242.835 502.919 244.264C504.242 245.693 504.903 247.475 504.903 249.608ZM492.871 248.616H502.727C502.535 247.272 502.023 246.173 501.191 245.32C500.359 244.467 499.293 244.04 497.991 244.04C496.541 244.04 495.367 244.456 494.471 245.288C493.575 246.12 493.042 247.229 492.871 248.616ZM509.251 242.536H511.363V249.224L518.851 242.536H521.571L513.443 249.768L521.603 257H518.851L511.363 250.696V257H509.251V242.536ZM523.172 244.456V242.536H536.676V244.456H530.98V257H528.868V244.456H523.172ZM551.392 242.536H553.504V257H551.392V250.696H542.144V257H540.032V242.536H542.144V248.776H551.392V242.536ZM573.468 242.536H575.58V257H573.468V242.536ZM560.988 247.624H565.692C567.398 247.624 568.7 248.083 569.596 249C570.492 249.896 570.94 251.005 570.94 252.328C570.94 253.693 570.492 254.813 569.596 255.688C568.721 256.563 567.42 257 565.692 257H558.876V242.536H560.988V247.624ZM560.988 255.08H565.595C566.62 255.08 567.409 254.845 567.964 254.376C568.54 253.907 568.828 253.224 568.828 252.328C568.828 251.432 568.54 250.749 567.964 250.28C567.409 249.789 566.62 249.544 565.595 249.544H560.988V255.08ZM593.321 242.536L587.433 249.704L593.449 257H590.825L586.121 251.304L581.449 257H578.921L584.873 249.768L578.953 242.536H581.577L586.185 248.168L590.793 242.536H593.321ZM71.088 293.8C72.24 294.419 72.816 295.389 72.816 296.712C72.816 298.035 72.2293 299.155 71.056 300.072C69.8827 300.968 68.3787 301.416 66.544 301.416C64.6027 301.416 63.0347 300.979 61.84 300.104C60.6453 299.229 59.888 298.184 59.568 296.968H61.872C62.256 297.821 62.8107 298.461 63.536 298.888C64.2613 299.293 65.264 299.496 66.544 299.496C67.632 299.496 68.592 299.261 69.424 298.792C70.2773 298.323 70.704 297.661 70.704 296.808C70.704 296.189 70.4907 295.688 70.064 295.304C69.6587 294.92 69.0507 294.728 68.24 294.728H64.656V292.808H68.208C68.976 292.808 69.5733 292.627 70 292.264C70.4267 291.901 70.64 291.379 70.64 290.696C70.64 289.885 70.2347 289.245 69.424 288.776C68.6347 288.285 67.664 288.04 66.512 288.04C64.1013 288.04 62.5653 288.851 61.904 290.472H59.632C59.952 289.277 60.688 288.253 61.84 287.4C63.0133 286.547 64.5813 286.12 66.544 286.12C68.1867 286.12 69.6267 286.525 70.864 287.336C72.1227 288.147 72.752 289.267 72.752 290.696C72.752 292.104 72.1973 293.139 71.088 293.8ZM83.0068 286.12C85.0121 286.12 86.6334 286.621 87.8708 287.624C89.1081 288.605 89.7268 289.971 89.7268 291.72V301H87.6148V299.208C86.3561 300.68 84.6174 301.416 82.3988 301.416C80.6281 301.416 79.1881 301.011 78.0788 300.2C76.9694 299.389 76.4148 298.227 76.4148 296.712C76.4148 295.133 76.9801 293.96 78.1108 293.192C79.2628 292.403 80.7348 292.008 82.5268 292.008H87.6148V291.72C87.6148 290.461 87.1881 289.533 86.3348 288.936C85.5028 288.339 84.3721 288.04 82.9427 288.04C81.8334 288.04 80.8841 288.264 80.0948 288.712C79.3054 289.16 78.7508 289.747 78.4308 290.472H76.1588C76.5854 289.107 77.4068 288.04 78.6228 287.272C79.8388 286.504 81.3001 286.12 83.0068 286.12ZM87.6148 295.048V293.928H82.4628C79.8388 293.928 78.5268 294.856 78.5268 296.712C78.5268 297.629 78.8788 298.323 79.5828 298.792C80.2868 299.261 81.2361 299.496 82.4308 299.496C84.0308 299.496 85.2894 299.059 86.2068 298.184C87.1454 297.309 87.6148 296.264 87.6148 295.048ZM109.759 305.032H107.647V301H94.6545V305.032H92.5425V299.08H94.1105C95.4545 297.949 96.1265 295.763 96.1265 292.52V286.536H107.423V299.08H109.759V305.032ZM98.2385 288.456V292.488C98.2385 295.475 97.7478 297.672 96.7665 299.08H105.311V288.456H98.2385ZM119.382 286.12C121.387 286.12 123.008 286.621 124.246 287.624C125.483 288.605 126.102 289.971 126.102 291.72V301H123.99V299.208C122.731 300.68 120.992 301.416 118.774 301.416C117.003 301.416 115.563 301.011 114.454 300.2C113.344 299.389 112.79 298.227 112.79 296.712C112.79 295.133 113.355 293.96 114.486 293.192C115.638 292.403 117.11 292.008 118.902 292.008H123.99V291.72C123.99 290.461 123.563 289.533 122.71 288.936C121.878 288.339 120.747 288.04 119.318 288.04C118.208 288.04 117.259 288.264 116.47 288.712C115.68 289.16 115.126 289.747 114.806 290.472H112.534C112.96 289.107 113.782 288.04 114.998 287.272C116.214 286.504 117.675 286.12 119.382 286.12ZM123.99 295.048V293.928H118.838C116.214 293.928 114.902 294.856 114.902 296.712C114.902 297.629 115.254 298.323 115.958 298.792C116.662 299.261 117.611 299.496 118.806 299.496C120.406 299.496 121.664 299.059 122.582 298.184C123.52 297.309 123.99 296.264 123.99 295.048ZM130.262 291.048V286.536H132.374V290.92C132.374 291.965 132.672 292.723 133.27 293.192C133.888 293.64 134.966 293.864 136.502 293.864C137.803 293.864 139.403 293.715 141.302 293.416V286.536H143.414V301H141.302V295.304C140.939 295.432 140.235 295.549 139.19 295.656C138.166 295.741 137.323 295.784 136.661 295.784C132.395 295.784 130.262 294.205 130.262 291.048ZM167.573 293.8C168.939 294.397 169.621 295.549 169.621 297.256C169.621 298.344 169.237 299.24 168.469 299.944C167.701 300.648 166.592 301 165.141 301H156.469V286.536H165.045C166.517 286.536 167.627 286.888 168.373 287.592C169.141 288.275 169.525 289.181 169.525 290.312C169.525 292.019 168.875 293.181 167.573 293.8ZM158.581 292.808H164.917C165.707 292.808 166.315 292.627 166.741 292.264C167.189 291.88 167.413 291.336 167.413 290.632C167.413 289.928 167.189 289.395 166.741 289.032C166.315 288.648 165.707 288.456 164.917 288.456H158.581V292.808ZM158.581 299.08H165.013C165.803 299.08 166.411 298.899 166.837 298.536C167.285 298.152 167.509 297.608 167.509 296.904C167.509 296.2 167.285 295.667 166.837 295.304C166.411 294.92 165.803 294.728 165.013 294.728H158.581V299.08ZM193.432 288.296C194.84 289.747 195.544 291.571 195.544 293.768C195.544 295.965 194.84 297.789 193.432 299.24C192.024 300.691 190.253 301.416 188.12 301.416C185.987 301.416 184.205 300.691 182.776 299.24C181.368 297.789 180.664 295.965 180.664 293.768C180.664 291.571 181.368 289.747 182.776 288.296C184.205 286.845 185.987 286.12 188.12 286.12C190.253 286.12 192.024 286.845 193.432 288.296ZM191.96 297.864C192.941 296.755 193.432 295.389 193.432 293.768C193.432 292.147 192.941 290.792 191.96 289.704C190.979 288.595 189.699 288.04 188.12 288.04C186.541 288.04 185.251 288.595 184.248 289.704C183.267 290.792 182.776 292.147 182.776 293.768C182.776 295.389 183.267 296.755 184.248 297.864C185.251 298.952 186.541 299.496 188.12 299.496C189.699 299.496 190.979 298.952 191.96 297.864ZM206.914 286.504C208.983 286.504 210.722 287.251 212.13 288.744C213.538 290.216 214.242 291.965 214.242 293.992C214.242 296.061 213.517 297.821 212.066 299.272C210.637 300.701 208.845 301.416 206.69 301.416C204.237 301.416 202.381 300.595 201.122 298.952C199.885 297.288 199.266 295.187 199.266 292.648C199.266 289.213 199.693 286.632 200.546 284.904C201.421 283.176 203.117 282.152 205.634 281.832L208.994 281.416C209.826 281.288 210.445 281.107 210.85 280.872C211.277 280.616 211.543 280.189 211.65 279.592H213.762C213.677 280.019 213.57 280.392 213.442 280.712C213.335 281.011 213.143 281.352 212.866 281.736C212.61 282.12 212.215 282.44 211.682 282.696C211.17 282.952 210.53 283.133 209.762 283.24L205.698 283.784C204.994 283.891 204.375 284.093 203.842 284.392C203.33 284.669 202.935 284.979 202.658 285.32C202.381 285.64 202.146 286.056 201.954 286.568C201.783 287.059 201.666 287.464 201.602 287.784C201.559 288.104 201.517 288.509 201.474 289C202.797 287.336 204.61 286.504 206.914 286.504ZM212.13 293.96C212.13 292.424 211.629 291.123 210.626 290.056C209.645 288.968 208.375 288.424 206.818 288.424C205.239 288.424 203.938 288.968 202.914 290.056C201.89 291.144 201.378 292.445 201.378 293.96C201.378 295.496 201.869 296.808 202.85 297.896C203.853 298.963 205.133 299.496 206.69 299.496C208.269 299.496 209.57 298.952 210.594 297.864C211.618 296.776 212.13 295.475 212.13 293.96ZM219.718 286.536H230.854V301H228.742V288.456H221.83V292.712C221.83 293.523 221.819 294.163 221.798 294.632C221.777 295.101 221.723 295.709 221.638 296.456C221.553 297.203 221.403 297.811 221.19 298.28C220.998 298.728 220.731 299.187 220.39 299.656C220.049 300.104 219.59 300.445 219.014 300.68C218.459 300.893 217.798 301 217.03 301H216.422V298.984H216.71C217.393 298.984 217.947 298.813 218.374 298.472C218.822 298.109 219.131 297.576 219.302 296.872C219.494 296.168 219.611 295.539 219.654 294.984C219.697 294.429 219.718 293.693 219.718 292.776V286.536ZM241.819 286.12C243.825 286.12 245.446 286.621 246.683 287.624C247.921 288.605 248.539 289.971 248.539 291.72V301H246.427V299.208C245.169 300.68 243.43 301.416 241.211 301.416C239.441 301.416 238.001 301.011 236.891 300.2C235.782 299.389 235.227 298.227 235.227 296.712C235.227 295.133 235.793 293.96 236.923 293.192C238.075 292.403 239.547 292.008 241.339 292.008H246.427V291.72C246.427 290.461 246.001 289.533 245.147 288.936C244.315 288.339 243.185 288.04 241.755 288.04C240.646 288.04 239.697 288.264 238.907 288.712C238.118 289.16 237.563 289.747 237.243 290.472H234.971C235.398 289.107 236.219 288.04 237.435 287.272C238.651 286.504 240.113 286.12 241.819 286.12ZM246.427 295.048V293.928H241.275C238.651 293.928 237.339 294.856 237.339 296.712C237.339 297.629 237.691 298.323 238.395 298.792C239.099 299.261 240.049 299.496 241.243 299.496C242.843 299.496 244.102 299.059 245.019 298.184C245.958 297.309 246.427 296.264 246.427 295.048ZM266.683 290.408H264.411C264.006 289.704 263.419 289.139 262.651 288.712C261.883 288.264 261.008 288.04 260.027 288.04C258.47 288.04 257.179 288.595 256.155 289.704C255.152 290.813 254.651 292.168 254.651 293.768C254.651 295.368 255.152 296.723 256.155 297.832C257.179 298.941 258.47 299.496 260.027 299.496C261.008 299.496 261.883 299.283 262.651 298.856C263.419 298.408 264.006 297.832 264.411 297.128H266.683C266.171 298.472 265.328 299.528 264.155 300.296C262.982 301.043 261.606 301.416 260.027 301.416C257.915 301.416 256.134 300.691 254.683 299.24C253.254 297.768 252.539 295.944 252.539 293.768C252.539 291.592 253.254 289.779 254.683 288.328C256.134 286.856 257.915 286.12 260.027 286.12C261.606 286.12 262.982 286.504 264.155 287.272C265.328 288.019 266.171 289.064 266.683 290.408ZM268.86 288.456V286.536H282.364V288.456H276.668V301H274.556V288.456H268.86ZM287.831 301H285.719V286.536H287.831V297.896L297.079 286.536H299.191V301H297.079V289.64L287.831 301ZM314.363 301H312.251V286.536H314.363V297.896L323.611 286.536H325.722V301H323.611V289.64L314.363 301ZM344.214 290.408H341.942C341.537 289.704 340.95 289.139 340.182 288.712C339.414 288.264 338.54 288.04 337.558 288.04C336.001 288.04 334.71 288.595 333.686 289.704C332.684 290.813 332.182 292.168 332.182 293.768C332.182 295.368 332.684 296.723 333.686 297.832C334.71 298.941 336.001 299.496 337.558 299.496C338.54 299.496 339.414 299.283 340.182 298.856C340.95 298.408 341.537 297.832 341.942 297.128H344.214C343.702 298.472 342.86 299.528 341.686 300.296C340.513 301.043 339.137 301.416 337.558 301.416C335.446 301.416 333.665 300.691 332.214 299.24C330.785 297.768 330.07 295.944 330.07 293.768C330.07 291.592 330.785 289.779 332.214 288.328C333.665 286.856 335.446 286.12 337.558 286.12C339.137 286.12 340.513 286.504 341.686 287.272C342.86 288.019 343.702 289.064 344.214 290.408ZM348.407 286.536H350.519V293.224L358.007 286.536H360.727L352.599 293.768L360.759 301H358.007L350.519 294.696V301H348.407V286.536ZM361.351 286.536H363.687L369.095 298.504L374.503 286.536H376.711L370.087 301.096C369.874 301.565 369.597 302.195 369.255 302.984C368.914 303.773 368.658 304.328 368.487 304.648C368.338 304.968 368.114 305.363 367.815 305.832C367.538 306.323 367.261 306.653 366.983 306.824C366.727 306.995 366.386 307.155 365.959 307.304C365.554 307.453 365.074 307.528 364.519 307.528H363.367V305.608H363.879C364.775 305.608 365.447 305.373 365.895 304.904C366.365 304.456 366.866 303.581 367.399 302.28L367.943 300.968L361.351 286.536ZM392.496 290.408H390.224C389.818 289.704 389.232 289.139 388.464 288.712C387.696 288.264 386.821 288.04 385.84 288.04C384.282 288.04 382.992 288.595 381.968 289.704C380.965 290.813 380.464 292.168 380.464 293.768C380.464 295.368 380.965 296.723 381.968 297.832C382.992 298.941 384.282 299.496 385.84 299.496C386.821 299.496 387.696 299.283 388.464 298.856C389.232 298.408 389.818 297.832 390.224 297.128H392.496C391.984 298.472 391.141 299.528 389.968 300.296C388.794 301.043 387.418 301.416 385.84 301.416C383.728 301.416 381.946 300.691 380.496 299.24C379.066 297.768 378.352 295.944 378.352 293.768C378.352 291.592 379.066 289.779 380.496 288.328C381.946 286.856 383.728 286.12 385.84 286.12C387.418 286.12 388.794 286.504 389.968 287.272C391.141 288.019 391.984 289.064 392.496 290.408ZM409.808 290.408H407.536C407.131 289.704 406.544 289.139 405.776 288.712C405.008 288.264 404.133 288.04 403.152 288.04C401.595 288.04 400.304 288.595 399.28 289.704C398.277 290.813 397.776 292.168 397.776 293.768C397.776 295.368 398.277 296.723 399.28 297.832C400.304 298.941 401.595 299.496 403.152 299.496C404.133 299.496 405.008 299.283 405.776 298.856C406.544 298.408 407.131 297.832 407.536 297.128H409.808C409.296 298.472 408.453 299.528 407.28 300.296C406.107 301.043 404.731 301.416 403.152 301.416C401.04 301.416 399.259 300.691 397.808 299.24C396.379 297.768 395.664 295.944 395.664 293.768C395.664 291.592 396.379 289.779 397.808 288.328C399.259 286.856 401.04 286.12 403.152 286.12C404.731 286.12 406.107 286.504 407.28 287.272C408.453 288.019 409.296 289.064 409.808 290.408ZM411.985 288.456V286.536H425.489V288.456H419.793V301H417.681V288.456H411.985ZM439.948 293.8C441.314 294.397 441.996 295.549 441.996 297.256C441.996 298.344 441.612 299.24 440.844 299.944C440.076 300.648 438.967 301 437.516 301H428.844V286.536H437.42C438.892 286.536 440.002 286.888 440.748 287.592C441.516 288.275 441.9 289.181 441.9 290.312C441.9 292.019 441.25 293.181 439.948 293.8ZM430.956 292.808H437.292C438.082 292.808 438.69 292.627 439.116 292.264C439.564 291.88 439.788 291.336 439.788 290.632C439.788 289.928 439.564 289.395 439.116 289.032C438.69 288.648 438.082 288.456 437.292 288.456H430.956V292.808ZM430.956 299.08H437.388C438.178 299.08 438.786 298.899 439.212 298.536C439.66 298.152 439.884 297.608 439.884 296.904C439.884 296.2 439.66 295.667 439.212 295.304C438.786 294.92 438.178 294.728 437.388 294.728H430.956V299.08ZM459.56 293.608C459.56 294.077 459.538 294.387 459.496 294.536H447.528C447.656 295.944 448.21 297.128 449.192 298.088C450.194 299.027 451.389 299.496 452.776 299.496C454.802 299.496 456.274 298.707 457.192 297.128H459.368C458.856 298.493 458.024 299.549 456.872 300.296C455.741 301.043 454.376 301.416 452.776 301.416C450.642 301.416 448.872 300.701 447.464 299.272C446.056 297.821 445.352 295.976 445.352 293.736C445.352 291.539 446.024 289.725 447.368 288.296C448.733 286.845 450.493 286.12 452.648 286.12C454.632 286.12 456.274 286.835 457.576 288.264C458.898 289.693 459.56 291.475 459.56 293.608ZM447.528 292.616H457.384C457.192 291.272 456.68 290.173 455.848 289.32C455.016 288.467 453.949 288.04 452.648 288.04C451.197 288.04 450.024 288.456 449.128 289.288C448.232 290.12 447.698 291.229 447.528 292.616ZM475.267 286.536H477.379V301H475.267V294.696H466.019V301H463.907V286.536H466.019V292.776H475.267V286.536ZM494.111 286.536H496.222V301H494.111V294.696H484.863V301H482.751V286.536H484.863V292.776H494.111V286.536ZM513.338 288.296C514.746 289.747 515.45 291.571 515.45 293.768C515.45 295.965 514.746 297.789 513.338 299.24C511.93 300.691 510.16 301.416 508.026 301.416C505.893 301.416 504.112 300.691 502.682 299.24C501.274 297.789 500.57 295.965 500.57 293.768C500.57 291.571 501.274 289.747 502.682 288.296C504.112 286.845 505.893 286.12 508.026 286.12C510.16 286.12 511.93 286.845 513.338 288.296ZM511.866 297.864C512.848 296.755 513.338 295.389 513.338 293.768C513.338 292.147 512.848 290.792 511.866 289.704C510.885 288.595 509.605 288.04 508.026 288.04C506.448 288.04 505.157 288.595 504.154 289.704C503.173 290.792 502.682 292.147 502.682 293.768C502.682 295.389 503.173 296.755 504.154 297.864C505.157 298.952 506.448 299.496 508.026 299.496C509.605 299.496 510.885 298.952 511.866 297.864ZM519.844 286.536H530.948V288.456H521.956V301H519.844V286.536ZM545.526 288.296C546.934 289.747 547.638 291.571 547.638 293.768C547.638 295.965 546.934 297.789 545.526 299.24C544.118 300.691 542.347 301.416 540.214 301.416C538.08 301.416 536.299 300.691 534.87 299.24C533.462 297.789 532.758 295.965 532.758 293.768C532.758 291.571 533.462 289.747 534.87 288.296C536.299 286.845 538.08 286.12 540.214 286.12C542.347 286.12 544.118 286.845 545.526 288.296ZM544.054 297.864C545.035 296.755 545.526 295.389 545.526 293.768C545.526 292.147 545.035 290.792 544.054 289.704C543.072 288.595 541.792 288.04 540.214 288.04C538.635 288.04 537.344 288.595 536.342 289.704C535.36 290.792 534.87 292.147 534.87 293.768C534.87 295.389 535.36 296.755 536.342 297.864C537.344 298.952 538.635 299.496 540.214 299.496C541.792 299.496 543.072 298.952 544.054 297.864ZM62.8 345H60.688V330.536H62.8V341.896L72.048 330.536H74.16V345H72.048V333.64L62.8 345ZM90.8918 330.536H93.0037V345H90.8918V338.696H81.6438V345H79.5318V330.536H81.6438V336.776H90.8918V330.536ZM96.3595 332.456V330.536H109.864V332.456H104.168V345H102.056V332.456H96.3595ZM126.153 337.608C126.153 338.077 126.132 338.387 126.089 338.536H114.121C114.249 339.944 114.804 341.128 115.785 342.088C116.788 343.027 117.983 343.496 119.369 343.496C121.396 343.496 122.868 342.707 123.785 341.128H125.961C125.449 342.493 124.617 343.549 123.465 344.296C122.335 345.043 120.969 345.416 119.369 345.416C117.236 345.416 115.465 344.701 114.057 343.272C112.649 341.821 111.945 339.976 111.945 337.736C111.945 335.539 112.617 333.725 113.961 332.296C115.327 330.845 117.087 330.12 119.241 330.12C121.225 330.12 122.868 330.835 124.169 332.264C125.492 333.693 126.153 335.475 126.153 337.608ZM114.121 336.616H123.977C123.785 335.272 123.273 334.173 122.441 333.32C121.609 332.467 120.543 332.04 119.241 332.04C117.791 332.04 116.617 332.456 115.721 333.288C114.825 334.12 114.292 335.229 114.121 336.616ZM131.781 330.536H142.917V345H140.805V332.456H133.893V336.712C133.893 337.523 133.882 338.163 133.861 338.632C133.839 339.101 133.786 339.709 133.701 340.456C133.615 341.203 133.466 341.811 133.253 342.28C133.061 342.728 132.794 343.187 132.453 343.656C132.111 344.104 131.653 344.445 131.077 344.68C130.522 344.893 129.861 345 129.093 345H128.485V342.984H128.773C129.455 342.984 130.01 342.813 130.437 342.472C130.885 342.109 131.194 341.576 131.365 340.872C131.557 340.168 131.674 339.539 131.717 338.984C131.759 338.429 131.781 337.693 131.781 336.776V330.536ZM149.562 330.536H160.698V345H158.586V332.456H151.674V336.712C151.674 337.523 151.663 338.163 151.642 338.632C151.62 339.101 151.567 339.709 151.482 340.456C151.396 341.203 151.247 341.811 151.034 342.28C150.842 342.728 150.575 343.187 150.234 343.656C149.892 344.104 149.434 344.445 148.858 344.68C148.303 344.893 147.642 345 146.874 345H146.266V342.984H146.554C147.236 342.984 147.791 342.813 148.218 342.472C148.666 342.109 148.975 341.576 149.146 340.872C149.338 340.168 149.455 339.539 149.498 338.984C149.54 338.429 149.562 337.693 149.562 336.776V330.536ZM179.247 337.608C179.247 338.077 179.226 338.387 179.183 338.536H167.215C167.343 339.944 167.898 341.128 168.879 342.088C169.882 343.027 171.076 343.496 172.463 343.496C174.49 343.496 175.962 342.707 176.879 341.128H179.055C178.543 342.493 177.711 343.549 176.559 344.296C175.428 345.043 174.063 345.416 172.463 345.416C170.33 345.416 168.559 344.701 167.151 343.272C165.743 341.821 165.039 339.976 165.039 337.736C165.039 335.539 165.711 333.725 167.055 332.296C168.42 330.845 170.18 330.12 172.335 330.12C174.319 330.12 175.962 330.835 177.263 332.264C178.586 333.693 179.247 335.475 179.247 337.608ZM167.215 336.616H177.071C176.879 335.272 176.367 334.173 175.535 333.32C174.703 332.467 173.636 332.04 172.335 332.04C170.884 332.04 169.711 332.456 168.815 333.288C167.919 334.12 167.386 335.229 167.215 336.616ZM183.594 330.536H185.706V337.224L193.194 330.536H195.914L187.786 337.768L195.946 345H193.194L185.706 338.696V345H183.594V330.536ZM197.516 332.456V330.536H211.02V332.456H205.324V345H203.212V332.456H197.516ZM220.288 330.12C222.293 330.12 223.915 330.621 225.152 331.624C226.389 332.605 227.008 333.971 227.008 335.72V345H224.896V343.208C223.637 344.68 221.899 345.416 219.68 345.416C217.909 345.416 216.469 345.011 215.36 344.2C214.251 343.389 213.696 342.227 213.696 340.712C213.696 339.133 214.261 337.96 215.392 337.192C216.544 336.403 218.016 336.008 219.808 336.008H224.896V335.72C224.896 334.461 224.469 333.533 223.616 332.936C222.784 332.339 221.653 332.04 220.224 332.04C219.115 332.04 218.165 332.264 217.376 332.712C216.587 333.16 216.032 333.747 215.712 334.472H213.44C213.867 333.107 214.688 332.04 215.904 331.272C217.12 330.504 218.581 330.12 220.288 330.12ZM224.896 339.048V337.928H219.744C217.12 337.928 215.808 338.856 215.808 340.712C215.808 341.629 216.16 342.323 216.864 342.792C217.568 343.261 218.517 343.496 219.712 343.496C221.312 343.496 222.571 343.059 223.488 342.184C224.427 341.309 224.896 340.264 224.896 339.048ZM241.831 345H239.719V330.536H241.831V341.896L251.079 330.536H253.191V345H251.079V333.64L241.831 345ZM279.371 334.408H277.099C276.693 333.704 276.107 333.139 275.339 332.712C274.571 332.264 273.696 332.04 272.715 332.04C271.157 332.04 269.867 332.595 268.843 333.704C267.84 334.813 267.339 336.168 267.339 337.768C267.339 339.368 267.84 340.723 268.843 341.832C269.867 342.941 271.157 343.496 272.715 343.496C273.696 343.496 274.571 343.283 275.339 342.856C276.107 342.408 276.693 341.832 277.099 341.128H279.371C278.859 342.472 278.016 343.528 276.843 344.296C275.669 345.043 274.293 345.416 272.715 345.416C270.603 345.416 268.821 344.691 267.371 343.24C265.941 341.768 265.227 339.944 265.227 337.768C265.227 335.592 265.941 333.779 267.371 332.328C268.821 330.856 270.603 330.12 272.715 330.12C274.293 330.12 275.669 330.504 276.843 331.272C278.016 332.019 278.859 333.064 279.371 334.408ZM298.571 334.408L293.323 345H290.923L285.675 334.408V345H283.563V330.536H286.059L292.139 342.792L298.219 330.536H300.683V345H298.571V334.408ZM319.247 337.608C319.247 338.077 319.226 338.387 319.183 338.536H307.215C307.343 339.944 307.898 341.128 308.879 342.088C309.882 343.027 311.076 343.496 312.463 343.496C314.49 343.496 315.962 342.707 316.879 341.128H319.055C318.543 342.493 317.711 343.549 316.559 344.296C315.428 345.043 314.063 345.416 312.463 345.416C310.33 345.416 308.559 344.701 307.151 343.272C305.743 341.821 305.039 339.976 305.039 337.736C305.039 335.539 305.711 333.725 307.055 332.296C308.42 330.845 310.18 330.12 312.335 330.12C314.319 330.12 315.962 330.835 317.263 332.264C318.586 333.693 319.247 335.475 319.247 337.608ZM307.215 336.616H317.071C316.879 335.272 316.367 334.173 315.535 333.32C314.703 332.467 313.636 332.04 312.335 332.04C310.884 332.04 309.711 332.456 308.815 333.288C307.919 334.12 307.386 335.229 307.215 336.616ZM330.131 330.536H332.243V336.904L338.867 330.536H341.523L334.035 337.864L341.523 345H338.642L332.243 338.888V345H330.131V338.888L323.731 345H320.883L328.371 337.864L320.883 330.536H323.507L330.131 336.904V330.536ZM355.892 330.536H358.004V345H355.892V338.696H346.644V345H344.532V330.536H346.644V336.776H355.892V330.536ZM377.968 330.536H380.08V345H377.968V330.536ZM365.488 335.624H370.192C371.898 335.624 373.2 336.083 374.096 337C374.992 337.896 375.44 339.005 375.44 340.328C375.44 341.693 374.992 342.813 374.096 343.688C373.221 344.563 371.92 345 370.192 345H363.376V330.536H365.488V335.624ZM365.488 343.08H370.095C371.12 343.08 371.909 342.845 372.464 342.376C373.04 341.907 373.328 341.224 373.328 340.328C373.328 339.432 373.04 338.749 372.464 338.28C371.909 337.789 371.12 337.544 370.095 337.544H365.488V343.08ZM397.821 330.536L391.933 337.704L397.949 345H395.325L390.621 339.304L385.949 345H383.421L389.373 337.768L383.453 330.536H386.077L390.685 336.168L395.293 330.536H397.821ZM423.884 349.032H421.772V345H408.78V349.032H406.668V343.08H408.236C409.58 341.949 410.252 339.763 410.252 336.52V330.536H421.548V343.08H423.884V349.032ZM412.364 332.456V336.488C412.364 339.475 411.873 341.672 410.891 343.08H419.436V332.456H412.364ZM430.019 345H427.907V330.536H430.019V341.896L439.267 330.536H441.379V345H439.267V333.64L430.019 345ZM459.871 334.408H457.599C457.193 333.704 456.607 333.139 455.839 332.712C455.071 332.264 454.196 332.04 453.215 332.04C451.657 332.04 450.367 332.595 449.343 333.704C448.34 334.813 447.839 336.168 447.839 337.768C447.839 339.368 448.34 340.723 449.343 341.832C450.367 342.941 451.657 343.496 453.215 343.496C454.196 343.496 455.071 343.283 455.839 342.856C456.607 342.408 457.193 341.832 457.599 341.128H459.871C459.359 342.472 458.516 343.528 457.343 344.296C456.169 345.043 454.793 345.416 453.215 345.416C451.103 345.416 449.321 344.691 447.871 343.24C446.441 341.768 445.727 339.944 445.727 337.768C445.727 335.592 446.441 333.779 447.871 332.328C449.321 330.856 451.103 330.12 453.215 330.12C454.793 330.12 456.169 330.504 457.343 331.272C458.516 332.019 459.359 333.064 459.871 334.408ZM479.679 349.032H477.567V345H464.063V330.536H466.175V343.08H475.231V330.536H477.343V343.08H479.679V349.032ZM485.8 345H483.688V330.536H485.8V341.896L495.048 330.536H497.16V345H495.048V333.64L485.8 345ZM502.532 330.536H515.716V345H513.604V332.456H504.644V345H502.532V330.536ZM522.374 330.536H533.51V345H531.398V332.456H524.486V336.712C524.486 337.523 524.476 338.163 524.454 338.632C524.433 339.101 524.38 339.709 524.294 340.456C524.209 341.203 524.06 341.811 523.846 342.28C523.654 342.728 523.388 343.187 523.046 343.656C522.705 344.104 522.246 344.445 521.67 344.68C521.116 344.893 520.454 345 519.686 345H519.078V342.984H519.366C520.049 342.984 520.604 342.813 521.03 342.472C521.478 342.109 521.788 341.576 521.958 340.872C522.15 340.168 522.268 339.539 522.31 338.984C522.353 338.429 522.374 337.693 522.374 336.776V330.536ZM540.988 345H538.876V330.536H540.988V341.896L550.236 330.536H552.347V345H550.236V333.64L540.988 345ZM569.079 330.536H571.191V345H569.079V338.696H559.831V345H557.719V330.536H559.831V336.776H569.079V330.536ZM70.576 375.912H73.328L68.368 381.736L73.328 387.56H70.576L66.48 382.856V380.616L70.576 375.912ZM63.856 375.912H66.608L61.648 381.736L66.608 387.56H63.856L59.76 382.856V380.616L63.856 375.912ZM86.8528 369.352C84.3568 369.352 82.2874 370.205 80.6448 371.912C79.0021 373.597 78.1808 375.752 78.1808 378.376C78.1808 381 79.0021 383.165 80.6448 384.872C82.2874 386.557 84.3568 387.4 86.8528 387.4C89.6474 387.4 91.8128 386.269 93.3488 384.008H95.7808C94.9061 385.672 93.7008 386.995 92.1648 387.976C90.6501 388.936 88.8794 389.416 86.8528 389.416C83.7808 389.416 81.1994 388.36 79.1088 386.248C77.0181 384.115 75.9728 381.491 75.9728 378.376C75.9728 375.261 77.0181 372.648 79.1088 370.536C81.1994 368.403 83.7808 367.336 86.8528 367.336C88.8794 367.336 90.6501 367.827 92.1648 368.808C93.7008 369.768 94.9061 371.08 95.7808 372.744H93.3488C91.8128 370.483 89.6474 369.352 86.8528 369.352ZM102.019 389H99.9068V374.536H102.019V385.896L111.267 374.536H113.379V389H111.267V377.64L102.019 389ZM131.423 376.36C132.724 377.853 133.375 379.656 133.375 381.768C133.375 383.88 132.724 385.683 131.423 387.176C130.143 388.669 128.361 389.416 126.079 389.416C124.948 389.416 123.924 389.203 123.007 388.776C122.089 388.349 121.375 387.816 120.863 387.176V395.528H118.751V374.536H120.863V376.36C121.375 375.72 122.089 375.187 123.007 374.76C123.924 374.333 124.948 374.12 126.079 374.12C128.361 374.12 130.143 374.867 131.423 376.36ZM129.791 385.832C130.772 384.701 131.263 383.347 131.263 381.768C131.263 380.189 130.772 378.845 129.791 377.736C128.831 376.605 127.593 376.04 126.079 376.04C124.585 376.04 123.327 376.541 122.303 377.544C121.3 378.525 120.799 379.933 120.799 381.768C120.799 383.603 121.3 385.021 122.303 386.024C123.327 387.005 124.585 387.496 126.079 387.496C127.593 387.496 128.831 386.941 129.791 385.832ZM139.831 389H137.719V374.536H139.831V385.896L149.079 374.536H151.191V389H149.079V377.64L139.831 389ZM154.195 374.536H156.531L161.939 386.504L167.347 374.536H169.555L162.931 389.096C162.718 389.565 162.44 390.195 162.099 390.984C161.758 391.773 161.502 392.328 161.331 392.648C161.182 392.968 160.958 393.363 160.659 393.832C160.382 394.323 160.104 394.653 159.827 394.824C159.571 394.995 159.23 395.155 158.803 395.304C158.398 395.453 157.918 395.528 157.363 395.528H156.211V393.608H156.723C157.619 393.608 158.291 393.373 158.739 392.904C159.208 392.456 159.71 391.581 160.243 390.28L160.787 388.968L154.195 374.536ZM185.339 378.408H183.067C182.662 377.704 182.075 377.139 181.307 376.712C180.539 376.264 179.665 376.04 178.683 376.04C177.126 376.04 175.835 376.595 174.811 377.704C173.809 378.813 173.307 380.168 173.307 381.768C173.307 383.368 173.809 384.723 174.811 385.832C175.835 386.941 177.126 387.496 178.683 387.496C179.665 387.496 180.539 387.283 181.307 386.856C182.075 386.408 182.662 385.832 183.067 385.128H185.339C184.827 386.472 183.985 387.528 182.811 388.296C181.638 389.043 180.262 389.416 178.683 389.416C176.571 389.416 174.79 388.691 173.339 387.24C171.91 385.768 171.195 383.944 171.195 381.768C171.195 379.592 171.91 377.779 173.339 376.328C174.79 374.856 176.571 374.12 178.683 374.12C180.262 374.12 181.638 374.504 182.811 375.272C183.985 376.019 184.827 377.064 185.339 378.408ZM188.86 389V386.056H191.804V389H188.86ZM196.661 367.752H198.869V386.216L212.117 367.752H214.837V389H212.628V370.568L199.413 389H196.661V367.752ZM220.536 367.752H222.744V386.216L235.992 367.752H238.712V389H236.503V370.568L223.288 389H220.536V367.752ZM249.435 375.912H252.187L256.283 380.616V382.856L252.187 387.56H249.435L254.395 381.736L249.435 375.912ZM242.715 375.912H245.467L249.562 380.616V382.856L245.467 387.56H242.715L247.675 381.736L242.715 375.912Z" fill="#2466E4"/>
</svg>
